<svg width="141" height="48" viewBox="0 0 141 48" fill="none" xmlns="http://www.w3.org/2000/svg">
<path d="M4.09 11.15C3.56333 11.15 3.14667 10.99 2.84 10.67C2.54 10.35 2.39 9.93667 2.39 9.43V8.6C2.39 8.31333 2.35 8.07 2.27 7.87C2.19 7.66333 2.07333 7.50667 1.92 7.4C1.76667 7.29333 1.58 7.24 1.36 7.24V6.41C1.58 6.41 1.76667 6.35667 1.92 6.25C2.07333 6.14333 2.19 5.99 2.27 5.79C2.35 5.58333 2.39 5.33667 2.39 5.05V4.22C2.39 3.71333 2.54 3.3 2.84 2.98C3.14667 2.66 3.56333 2.5 4.09 2.5H4.64V3.28C4.11333 3.26 3.74 3.32 3.52 3.46C3.3 3.6 3.19 3.84667 3.19 4.2V5.12C3.19 5.62 3.08 6.01 2.86 6.29C2.64 6.56333 2.37667 6.73667 2.07 6.81V6.82C2.38333 6.88667 2.64667 7.06333 2.86 7.35C3.08 7.63667 3.19 8.03 3.19 8.53V9.45C3.19 9.79667 3.3 10.04 3.52 10.18C3.74 10.32 4.11333 10.3833 4.64 10.37V11.15H4.09ZM8.61609 10.16C8.04943 10.16 7.56943 10.01 7.17609 9.71C6.78276 9.41 6.48276 8.98333 6.27609 8.43C6.07609 7.87667 5.97609 7.22 5.97609 6.46C5.97609 5.69333 6.07609 5.03333 6.27609 4.48C6.48276 3.92667 6.78276 3.5 7.17609 3.2C7.56943 2.89333 8.04943 2.74 8.61609 2.74C9.24276 2.74 9.77609 2.94667 10.2161 3.36C10.6561 3.76667 10.9494 4.33667 11.0961 5.07L10.1761 5.13C10.0628 4.61667 9.86609 4.23 9.58609 3.97C9.31276 3.71 8.98943 3.58 8.61609 3.58C8.23609 3.58 7.91609 3.69333 7.65609 3.92C7.40276 4.14 7.20943 4.46667 7.07609 4.9C6.94276 5.32667 6.87609 5.84667 6.87609 6.46C6.87609 7.06667 6.94276 7.58333 7.07609 8.01C7.20943 8.43667 7.40276 8.76333 7.65609 8.99C7.91609 9.21 8.23609 9.32 8.61609 9.32C9.02943 9.32 9.37943 9.17667 9.66609 8.89C9.95276 8.60333 10.1461 8.17667 10.2461 7.61L11.1561 7.66C11.0294 8.44 10.7428 9.05333 10.2961 9.5C9.84943 9.94 9.28943 10.16 8.61609 10.16ZM14.1922 10.16C13.6322 10.16 13.1555 10.0167 12.7622 9.73C12.3755 9.44333 12.0789 9.02333 11.8722 8.47C11.6722 7.91667 11.5722 7.24667 11.5722 6.46C11.5722 5.66 11.6722 4.98333 11.8722 4.43C12.0789 3.87667 12.3755 3.45667 12.7622 3.17C13.1555 2.88333 13.6322 2.74 14.1922 2.74C14.7522 2.74 15.2255 2.88333 15.6122 3.17C16.0055 3.45667 16.3022 3.87667 16.5022 4.43C16.7089 4.98333 16.8122 5.66 16.8122 6.46C16.8122 7.24667 16.7089 7.91667 16.5022 8.47C16.3022 9.02333 16.0055 9.44333 15.6122 9.73C15.2255 10.0167 14.7522 10.16 14.1922 10.16ZM14.1922 9.32C14.5589 9.32 14.8689 9.21333 15.1222 9C15.3822 8.78 15.5789 8.45667 15.7122 8.03C15.8455 7.60333 15.9122 7.08 15.9122 6.46C15.9122 5.84 15.8455 5.31667 15.7122 4.89C15.5789 4.45667 15.3822 4.13 15.1222 3.91C14.8689 3.69 14.5589 3.58 14.1922 3.58C13.8255 3.58 13.5122 3.69 13.2522 3.91C12.9989 4.13 12.8055 4.45667 12.6722 4.89C12.5389 5.31667 12.4722 5.84 12.4722 6.46C12.4722 7.08 12.5389 7.60333 12.6722 8.03C12.8055 8.45667 12.9989 8.78 13.2522 9C13.5122 9.21333 13.8255 9.32 14.1922 9.32ZM17.4883 10V2.9H18.7083L21.2283 9.02V2.9H22.0883V10H20.8683L18.3483 3.88V10H17.4883ZM23.0844 10V2.9H24.3044L26.8244 9.02V2.9H27.6844V10H26.4644L23.9444 3.88V10H23.0844ZM28.8805 10V2.9H33.2005V3.74H29.7405V6.03H33.0805V6.85H29.7405V9.16H33.2805V10H28.8805ZM36.5966 10.16C36.0299 10.16 35.5499 10.01 35.1566 9.71C34.7632 9.41 34.4632 8.98333 34.2566 8.43C34.0566 7.87667 33.9566 7.22 33.9566 6.46C33.9566 5.69333 34.0566 5.03333 34.2566 4.48C34.4632 3.92667 34.7632 3.5 35.1566 3.2C35.5499 2.89333 36.0299 2.74 36.5966 2.74C37.2232 2.74 37.7566 2.94667 38.1966 3.36C38.6366 3.76667 38.9299 4.33667 39.0766 5.07L38.1566 5.13C38.0432 4.61667 37.8466 4.23 37.5666 3.97C37.2932 3.71 36.9699 3.58 36.5966 3.58C36.2166 3.58 35.8966 3.69333 35.6366 3.92C35.3832 4.14 35.1899 4.46667 35.0566 4.9C34.9232 5.32667 34.8566 5.84667 34.8566 6.46C34.8566 7.06667 34.9232 7.58333 35.0566 8.01C35.1899 8.43667 35.3832 8.76333 35.6366 8.99C35.8966 9.21 36.2166 9.32 36.5966 9.32C37.0099 9.32 37.3599 9.17667 37.6466 8.89C37.9332 8.60333 38.1266 8.17667 38.2266 7.61L39.1366 7.66C39.0099 8.44 38.7232 9.05333 38.2766 9.5C37.8299 9.94 37.2699 10.16 36.5966 10.16ZM41.7427 10V3.74H39.5727V2.9H44.7727V3.74H42.6027V10H41.7427ZM51.4448 10L50.6648 2.9H51.5648L52.2248 9.5H52.1248L52.9048 3.7H53.8248L54.6048 9.5H54.5048L55.1648 2.9H56.0648L55.2848 10H53.9848L53.2448 4.4H53.4848L52.7448 10H51.4448ZM56.2209 10L58.3809 2.9H59.5409L61.7009 10H60.7809L58.9609 3.68L57.1409 10H56.2209ZM57.3109 7.98L57.6109 7.14H60.3109L60.6109 7.98H57.3109ZM62.557 10V2.9H63.417V9.6L62.987 9.16H66.957V10H62.557ZM68.1531 10V2.9H69.0131V9.6L68.5831 9.16H72.5531V10H68.1531ZM73.6492 10V2.9H77.9692V3.74H74.5092V6.03H77.8492V6.85H74.5092V9.16H78.0492V10H73.6492ZM80.9153 10V3.74H78.7453V2.9H83.9453V3.74H81.7753V10H80.9153ZM85.8514 11.15H85.3014V10.37C85.8347 10.3833 86.2081 10.32 86.4214 10.18C86.6414 10.04 86.7514 9.79667 86.7514 9.45V8.53C86.7514 8.03 86.8581 7.63667 87.0714 7.35C87.2914 7.06333 87.5581 6.88667 87.8714 6.82V6.81C87.5647 6.73667 87.3014 6.56333 87.0814 6.29C86.8614 6.01 86.7514 5.62 86.7514 5.12V4.2C86.7514 3.84667 86.6414 3.6 86.4214 3.46C86.2081 3.32 85.8347 3.26 85.3014 3.28V2.5H85.8514C86.3847 2.5 86.8014 2.66 87.1014 2.98C87.4014 3.3 87.5514 3.71333 87.5514 4.22V5.05C87.5514 5.33667 87.5914 5.58333 87.6714 5.79C87.7514 5.99 87.8681 6.14333 88.0214 6.25C88.1747 6.35667 88.3614 6.41 88.5814 6.41V7.24C88.3614 7.24 88.1747 7.29333 88.0214 7.4C87.8681 7.50667 87.7514 7.66333 87.6714 7.87C87.5914 8.07 87.5514 8.31333 87.5514 8.6V9.43C87.5514 9.93667 87.4014 10.35 87.1014 10.67C86.8014 10.99 86.3847 11.15 85.8514 11.15Z" fill="#9A9A9A"/>
<rect x="0.322917" y="16.3229" width="139.396" height="30.8542" rx="4.84375" fill="#7E42A6"/>
<rect x="0.322917" y="16.3229" width="139.396" height="30.8542" rx="4.84375" fill="#EFEDFE"/>
<rect x="0.322917" y="16.3229" width="139.396" height="30.8542" rx="4.84375" stroke="#7E42A6" stroke-width="0.645833"/>
<path d="M14.4219 28.1979V35.1406C14.4219 36.2107 15.2893 37.0781 16.3594 37.0781H25.0781V29.651H22.4948M14.4219 28.1979C14.4219 29.0005 15.0725 29.651 15.875 29.651H22.4948M14.4219 28.1979C14.4219 27.217 15.217 26.4219 16.1979 26.4219H22.4948V29.651" stroke="#7E42A6" stroke-width="0.96875" stroke-linecap="square" stroke-linejoin="round"/>
<path d="M22.0107 32.8804C22.2781 32.8805 22.4951 33.0973 22.4951 33.3647C22.4949 33.632 22.278 33.8489 22.0107 33.8491C21.7433 33.8491 21.5265 33.6321 21.5264 33.3647C21.5264 33.0972 21.7432 32.8804 22.0107 32.8804Z" fill="#7E42A6" stroke="#7E42A6" stroke-width="0.322917" stroke-linejoin="round"/>
<path d="M41.4794 36.3761C40.6763 36.3761 39.9594 36.1827 39.3287 35.7959C38.7022 35.4049 38.2082 34.8499 37.8466 34.1309C37.4892 33.4077 37.3105 32.5499 37.3105 31.5576C37.3105 30.5611 37.4892 29.7034 37.8466 28.9844C38.2082 28.2612 38.7022 27.7041 39.3287 27.313C39.9594 26.922 40.6763 26.7265 41.4794 26.7265C41.9545 26.7265 42.4023 26.7959 42.8228 26.9346C43.2474 27.0734 43.6279 27.2773 43.9643 27.5464C44.3007 27.8113 44.5803 28.135 44.8031 28.5177C45.0302 28.8961 45.1858 29.3271 45.2699 29.8106H44.0715C44.0043 29.4868 43.8886 29.203 43.7246 28.9591C43.5649 28.7153 43.3673 28.5093 43.1318 28.3411C42.9005 28.1729 42.6441 28.0467 42.3623 27.9626C42.0806 27.8786 41.7863 27.8365 41.4794 27.8365C40.9159 27.8365 40.4072 27.9795 39.9531 28.2654C39.499 28.5513 39.1395 28.9718 38.8746 29.5268C38.6097 30.0776 38.4773 30.7545 38.4773 31.5576C38.4773 32.3565 38.6097 33.0334 38.8746 33.5885C39.1437 34.1393 39.5053 34.5576 39.9594 34.8435C40.4135 35.1253 40.9202 35.2661 41.4794 35.2661C41.7863 35.2661 42.0806 35.2241 42.3623 35.14C42.6441 35.0517 42.9005 34.9255 43.1318 34.7616C43.3673 34.5934 43.5649 34.3873 43.7246 34.1435C43.8886 33.8954 44.0043 33.6116 44.0715 33.292H45.2699C45.19 33.7714 45.0365 34.2002 44.8094 34.5787C44.5866 34.9571 44.307 35.2808 43.9706 35.5499C43.6342 35.819 43.2537 36.0251 42.8291 36.168C42.4086 36.3068 41.9587 36.3761 41.4794 36.3761ZM49.5841 36.4014C48.945 36.4014 48.3836 36.25 47.9001 35.9473C47.4208 35.6445 47.0466 35.2199 46.7775 34.6733C46.5084 34.1267 46.3738 33.4918 46.3738 32.7686C46.3738 32.0327 46.5084 31.3915 46.7775 30.8449C47.0466 30.2941 47.4208 29.8674 47.9001 29.5646C48.3836 29.2619 48.945 29.1105 49.5841 29.1105C50.2274 29.1105 50.7908 29.2619 51.2743 29.5646C51.7579 29.8674 52.1342 30.2941 52.4033 30.8449C52.6724 31.3915 52.8069 32.0327 52.8069 32.7686C52.8069 33.4918 52.6724 34.1267 52.4033 34.6733C52.1342 35.2199 51.7579 35.6445 51.2743 35.9473C50.7908 36.25 50.2274 36.4014 49.5841 36.4014ZM49.5841 35.3859C50.0592 35.3859 50.4502 35.264 50.7572 35.0201C51.0641 34.7763 51.2912 34.4567 51.4383 34.0615C51.5855 33.662 51.6591 33.2311 51.6591 32.7686C51.6591 32.3018 51.5855 31.8688 51.4383 31.4693C51.2912 31.0657 51.0641 30.7419 50.7572 30.498C50.4502 30.25 50.0592 30.1259 49.5841 30.1259C49.1132 30.1259 48.7263 30.25 48.4236 30.498C48.1209 30.7419 47.8959 31.0636 47.7487 31.463C47.6016 31.8625 47.528 32.2976 47.528 32.7686C47.528 33.2311 47.6016 33.662 47.7487 34.0615C47.8959 34.4567 48.1209 34.7763 48.4236 35.0201C48.7263 35.264 49.1132 35.3859 49.5841 35.3859ZM55.3363 32.0243V36.25H54.201V29.1988H55.2921L55.2984 30.908H55.1408C55.3552 30.2563 55.66 29.7938 56.0553 29.5205C56.4547 29.2472 56.9214 29.1105 57.4554 29.1105C57.9305 29.1105 58.3468 29.2093 58.7042 29.4069C59.0616 29.6004 59.3391 29.8947 59.5367 30.2899C59.7385 30.6809 59.8395 31.175 59.8395 31.7721V36.25H58.7042V31.8667C58.7042 31.3243 58.5612 30.8996 58.2753 30.5927C57.9936 30.2857 57.6068 30.1322 57.1148 30.1322C56.7785 30.1322 56.4757 30.2058 56.2066 30.353C55.9375 30.5001 55.7252 30.7146 55.5696 30.9963C55.4141 31.278 55.3363 31.6207 55.3363 32.0243ZM62.7094 32.0243V36.25H61.5741V29.1988H62.6652L62.6715 30.908H62.5139C62.7283 30.2563 63.0331 29.7938 63.4284 29.5205C63.8278 29.2472 64.2945 29.1105 64.8285 29.1105C65.3036 29.1105 65.7199 29.2093 66.0773 29.4069C66.4347 29.6004 66.7122 29.8947 66.9098 30.2899C67.1116 30.6809 67.2125 31.175 67.2125 31.7721V36.25H66.0773V31.8667C66.0773 31.3243 65.9343 30.8996 65.6484 30.5927C65.3667 30.2857 64.9799 30.1322 64.4879 30.1322C64.1516 30.1322 63.8488 30.2058 63.5797 30.353C63.3106 30.5001 63.0983 30.7146 62.9427 30.9963C62.7872 31.278 62.7094 31.6207 62.7094 32.0243ZM71.9115 36.4014C71.2303 36.4014 70.6417 36.25 70.1455 35.9473C69.6536 35.6445 69.2731 35.222 69.004 34.6796C68.7391 34.1372 68.6066 33.5044 68.6066 32.7812C68.6066 32.058 68.737 31.421 68.9977 30.8702C69.2584 30.3193 69.6263 29.8884 70.1014 29.5772C70.5807 29.2661 71.1399 29.1105 71.779 29.1105C72.1533 29.1105 72.5212 29.1736 72.8828 29.2997C73.2486 29.4217 73.5786 29.6214 73.873 29.8989C74.1715 30.1722 74.409 30.5338 74.5856 30.9837C74.7622 31.4336 74.8505 31.9844 74.8505 32.6361V33.1091H69.3761V32.1505H74.2388L73.709 32.5037C73.709 32.0412 73.6354 31.6312 73.4882 31.2738C73.3453 30.9122 73.1308 30.6305 72.8449 30.4287C72.559 30.2226 72.2037 30.1196 71.779 30.1196C71.3544 30.1196 70.9907 30.2247 70.6879 30.435C70.3852 30.641 70.1539 30.9122 69.9942 31.2486C69.8344 31.5807 69.7545 31.9381 69.7545 32.3208V32.9578C69.7545 33.4791 69.8449 33.9227 70.0257 34.2885C70.2065 34.6501 70.4588 34.9255 70.7825 35.1147C71.1105 35.2998 71.4889 35.3923 71.9178 35.3923C72.1953 35.3923 72.4476 35.3523 72.6746 35.2724C72.9017 35.1925 73.0972 35.0727 73.2612 34.9129C73.4252 34.7489 73.5513 34.5471 73.6396 34.3075L74.737 34.6102C74.6277 34.9634 74.4427 35.2745 74.182 35.5436C73.9213 35.8127 73.5976 36.0229 73.2107 36.1743C72.8281 36.3257 72.395 36.4014 71.9115 36.4014ZM79.0891 36.4014C78.45 36.4014 77.8886 36.25 77.4051 35.9473C76.9258 35.6445 76.5516 35.2199 76.2825 34.6733C76.0134 34.1267 75.8788 33.4918 75.8788 32.7686C75.8788 32.0327 76.0134 31.3915 76.2825 30.8449C76.5516 30.2941 76.9258 29.8674 77.4051 29.5646C77.8886 29.2619 78.45 29.1105 79.0891 29.1105C79.4296 29.1105 79.7513 29.1547 80.054 29.243C80.3568 29.3313 80.6322 29.4595 80.8802 29.6277C81.1325 29.7917 81.3491 29.9956 81.5299 30.2395C81.7107 30.4791 81.8494 30.7524 81.9461 31.0594L80.855 31.3684C80.8046 31.1876 80.7268 31.0215 80.6217 30.8702C80.5165 30.7188 80.3883 30.5884 80.2369 30.4791C80.0898 30.3656 79.9195 30.2794 79.7261 30.2205C79.5327 30.1575 79.3203 30.1259 79.0891 30.1259C78.6181 30.1259 78.2313 30.25 77.9286 30.498C77.6259 30.7419 77.4009 31.0636 77.2537 31.463C77.1066 31.8625 77.033 32.2976 77.033 32.7686C77.033 33.2311 77.1066 33.662 77.2537 34.0615C77.4009 34.4567 77.6259 34.7763 77.9286 35.0201C78.2313 35.264 78.6181 35.3859 79.0891 35.3859C79.3245 35.3859 79.5411 35.3544 79.7387 35.2913C79.9363 35.2283 80.1108 35.14 80.2622 35.0264C80.4177 34.9087 80.5481 34.77 80.6532 34.6102C80.7583 34.4504 80.8361 34.2759 80.8866 34.0867L81.9714 34.3958C81.8788 34.7111 81.7401 34.9928 81.5551 35.2409C81.3743 35.4848 81.1578 35.695 80.9055 35.8716C80.6532 36.044 80.3736 36.1743 80.0666 36.2626C79.7597 36.3551 79.4338 36.4014 79.0891 36.4014ZM86.1153 29.1988V30.1701H82.4699V29.1988H86.1153ZM83.5294 27.5212H84.6647V34.421C84.6647 34.7363 84.7277 34.9676 84.8539 35.1147C84.9842 35.2577 85.1987 35.3292 85.4972 35.3292C85.5687 35.3292 85.6591 35.3208 85.7684 35.304C85.8819 35.2871 85.9849 35.2703 86.0774 35.2535L86.3108 36.2122C86.1931 36.2542 86.0585 36.2857 85.9072 36.3068C85.76 36.3278 85.6128 36.3383 85.4657 36.3383C84.856 36.3383 84.3809 36.1785 84.0403 35.859C83.6997 35.5352 83.5294 35.0853 83.5294 34.5093V27.5212ZM92.5741 36.25L90.0135 26.8526H91.237L92.7255 32.6172C92.8054 32.9241 92.8811 33.2374 92.9525 33.5569C93.024 33.8723 93.0934 34.1939 93.1607 34.5219C93.2279 34.8456 93.291 35.1799 93.3499 35.5247H93.2048C93.2679 35.1799 93.3331 34.8456 93.4003 34.5219C93.4676 34.1939 93.5391 33.8723 93.6148 33.5569C93.6905 33.2374 93.7682 32.9241 93.8481 32.6172L95.3681 26.8526H96.7304L98.2378 32.6172C98.3219 32.9241 98.3997 33.2374 98.4711 33.5569C98.5468 33.8723 98.6204 34.1939 98.6919 34.5219C98.7634 34.8456 98.8306 35.1799 98.8937 35.5247H98.7297C98.7928 35.1799 98.858 34.8456 98.9252 34.5219C98.9925 34.1939 99.064 33.8723 99.1397 33.5569C99.2154 33.2374 99.291 32.9241 99.3667 32.6172L100.849 26.8526H102.085L99.5118 36.25H98.1179L96.5034 30.2962C96.3982 29.9094 96.2973 29.4889 96.2006 29.0348C96.1039 28.5765 96.0093 28.0488 95.9168 27.4518H96.1691C96.0766 28.0152 95.9862 28.5198 95.8979 28.9655C95.8096 29.4069 95.7045 29.8505 95.5825 30.2962L93.9743 36.25H92.5741ZM104.469 36.414C104.024 36.414 103.618 36.3299 103.252 36.1617C102.89 35.9935 102.602 35.7475 102.388 35.4238C102.174 35.1 102.066 34.7069 102.066 34.2444C102.066 33.8407 102.146 33.5128 102.306 33.2605C102.466 33.0082 102.678 32.8106 102.943 32.6676C103.212 32.5205 103.509 32.4112 103.832 32.3397C104.156 32.2682 104.482 32.2114 104.81 32.1694C105.23 32.1147 105.573 32.0727 105.838 32.0433C106.103 32.0138 106.298 31.9634 106.424 31.8919C106.555 31.8204 106.62 31.6985 106.62 31.5261V31.4882C106.62 31.1939 106.565 30.9458 106.456 30.744C106.347 30.538 106.183 30.3803 105.964 30.271C105.745 30.1617 105.472 30.107 105.144 30.107C104.808 30.107 104.52 30.1596 104.28 30.2647C104.04 30.3698 103.845 30.5023 103.694 30.662C103.546 30.8176 103.435 30.9774 103.359 31.1414L102.268 30.7819C102.449 30.353 102.693 30.0187 103 29.7791C103.307 29.5352 103.645 29.3628 104.015 29.2619C104.385 29.161 104.751 29.1105 105.113 29.1105C105.348 29.1105 105.615 29.1399 105.914 29.1988C106.216 29.2535 106.506 29.3649 106.784 29.5331C107.066 29.7013 107.297 29.9514 107.478 30.2836C107.663 30.6116 107.755 31.051 107.755 31.6018V36.25H106.639V35.2913H106.563C106.483 35.4553 106.355 35.6256 106.178 35.8022C106.002 35.9746 105.773 36.1197 105.491 36.2374C105.209 36.3551 104.869 36.414 104.469 36.414ZM104.665 35.4112C105.085 35.4112 105.441 35.3292 105.731 35.1652C106.021 35.0012 106.242 34.7889 106.393 34.5282C106.544 34.2633 106.62 33.9879 106.62 33.702V32.7244C106.574 32.7791 106.473 32.8295 106.317 32.8758C106.162 32.9178 105.983 32.9557 105.781 32.9893C105.584 33.0229 105.39 33.0524 105.201 33.0776C105.016 33.0986 104.869 33.1154 104.759 33.1281C104.486 33.1617 104.23 33.2206 103.99 33.3046C103.755 33.3845 103.565 33.5044 103.422 33.6641C103.279 33.8197 103.208 34.0321 103.208 34.3011C103.208 34.545 103.271 34.7489 103.397 34.9129C103.523 35.0769 103.696 35.2009 103.914 35.285C104.133 35.3691 104.383 35.4112 104.665 35.4112ZM110.625 26.8526V36.25H109.49V26.8526H110.625ZM113.495 26.8526V36.25H112.36V26.8526H113.495ZM118.194 36.4014C117.513 36.4014 116.924 36.25 116.428 35.9473C115.936 35.6445 115.556 35.222 115.287 34.6796C115.022 34.1372 114.889 33.5044 114.889 32.7812C114.889 32.058 115.02 31.421 115.28 30.8702C115.541 30.3193 115.909 29.8884 116.384 29.5772C116.863 29.2661 117.422 29.1105 118.062 29.1105C118.436 29.1105 118.804 29.1736 119.165 29.2997C119.531 29.4217 119.861 29.6214 120.155 29.8989C120.454 30.1722 120.692 30.5338 120.868 30.9837C121.045 31.4336 121.133 31.9844 121.133 32.6361V33.1091H115.659V32.1505H120.521L119.992 32.5037C119.992 32.0412 119.918 31.6312 119.771 31.2738C119.628 30.9122 119.413 30.6305 119.127 30.4287C118.842 30.2226 118.486 30.1196 118.062 30.1196C117.637 30.1196 117.273 30.2247 116.97 30.435C116.668 30.641 116.436 30.9122 116.277 31.2486C116.117 31.5807 116.037 31.9381 116.037 32.3208V32.9578C116.037 33.4791 116.127 33.9227 116.308 34.2885C116.489 34.6501 116.741 34.9255 117.065 35.1147C117.393 35.2998 117.771 35.3923 118.2 35.3923C118.478 35.3923 118.73 35.3523 118.957 35.2724C119.184 35.1925 119.38 35.0727 119.544 34.9129C119.708 34.7489 119.834 34.5471 119.922 34.3075L121.02 34.6102C120.91 34.9634 120.725 35.2745 120.465 35.5436C120.204 35.8127 119.88 36.0229 119.493 36.1743C119.111 36.3257 118.678 36.4014 118.194 36.4014ZM125.277 29.1988V30.1701H121.632V29.1988H125.277ZM122.691 27.5212H123.826V34.421C123.826 34.7363 123.889 34.9676 124.016 35.1147C124.146 35.2577 124.36 35.3292 124.659 35.3292C124.73 35.3292 124.821 35.3208 124.93 35.304C125.044 35.2871 125.147 35.2703 125.239 35.2535L125.473 36.2122C125.355 36.2542 125.22 36.2857 125.069 36.3068C124.922 36.3278 124.775 36.3383 124.627 36.3383C124.018 36.3383 123.543 36.1785 123.202 35.859C122.861 35.5352 122.691 35.0853 122.691 34.5093V27.5212Z" fill="#7E42A6"/>
</svg>
