<svg width="113" height="85" viewBox="0 0 113 85" fill="none" xmlns="http://www.w3.org/2000/svg">
<path d="M4.70995 8.70563L0.642266 6.8948V5.94924L4.70995 4.13841V4.90556L1.19533 6.47554V6.3685L4.70995 7.93848V8.70563ZM5.95531 9.98124L8.6671 2.30973H9.38073L6.66894 9.98124H5.95531ZM10.7867 9V2.66655H14.6403V3.41586H11.5538V5.45862H14.5332V6.19009H11.5538V8.25069H14.7116V9H10.7867ZM17.2683 9V3.41586H15.3326V2.66655H19.9711V3.41586H18.0354V9H17.2683ZM20.5029 9V2.66655H21.27V5.74407L20.8775 5.44078H24.41L24.0175 5.74407V2.66655H24.7846V9H24.0175V5.8868L24.41 6.19009H20.8775L21.27 5.8868V9H20.5029ZM27.0826 9V7.91172H28.1887V9H27.0826ZM32.7257 9.14273C32.2797 9.14273 31.8842 9.05055 31.5393 8.86619C31.1944 8.68184 30.9179 8.4291 30.7097 8.10796C30.5016 7.78088 30.3797 7.40326 30.344 6.97508L31.1468 6.92156C31.1884 7.23674 31.2776 7.50435 31.4144 7.72439C31.5571 7.94442 31.7385 8.11094 31.9586 8.22393C32.1845 8.33692 32.4462 8.39342 32.7436 8.39342C33.0409 8.39342 33.2907 8.35773 33.4929 8.28637C33.6951 8.20906 33.8467 8.09904 33.9478 7.95632C34.0548 7.80765 34.1084 7.63221 34.1084 7.43002C34.1084 7.22782 34.0608 7.05239 33.9656 6.90372C33.8764 6.7491 33.704 6.60637 33.4483 6.47554C33.1985 6.34471 32.8268 6.2109 32.3332 6.07412C31.8931 5.94924 31.5363 5.81246 31.2628 5.66379C30.9952 5.51511 30.7989 5.33373 30.674 5.11965C30.5551 4.90556 30.4956 4.64092 30.4956 4.32573C30.4956 3.96892 30.5789 3.65671 30.7454 3.3891C30.9179 3.11554 31.1617 2.90442 31.4769 2.75575C31.792 2.60113 32.1667 2.52382 32.6008 2.52382C33.0349 2.52382 33.4066 2.61303 33.7159 2.79143C34.0251 2.96389 34.2689 3.20177 34.4473 3.50506C34.6317 3.80835 34.7477 4.15327 34.7952 4.53982L33.9924 4.59335C33.9567 4.33763 33.8824 4.11165 33.7694 3.9154C33.6564 3.7132 33.5018 3.55561 33.3055 3.44262C33.1093 3.32963 32.8684 3.27313 32.583 3.27313C32.1905 3.27313 31.8783 3.36828 31.6463 3.55858C31.4144 3.74294 31.2985 3.98676 31.2985 4.29005C31.2985 4.4863 31.3401 4.64984 31.4233 4.78067C31.5125 4.90556 31.6672 5.01855 31.8872 5.11965C32.1072 5.2148 32.4165 5.31887 32.8149 5.43186C33.3323 5.57458 33.7426 5.73515 34.0459 5.91356C34.3552 6.09196 34.5752 6.30605 34.706 6.55582C34.8428 6.79965 34.9112 7.09699 34.9112 7.44786C34.9112 7.78088 34.819 8.07526 34.6347 8.33097C34.4503 8.58669 34.1946 8.78591 33.8675 8.92864C33.5404 9.07136 33.1598 9.14273 32.7257 9.14273ZM37.12 9L35.211 2.66655H36.0317L37.7265 8.50046H37.5125L39.2073 2.66655H40.028L38.119 9H37.12ZM42.5936 9.14273C42.1476 9.14273 41.7491 9.02081 41.3982 8.77699C41.0533 8.52722 40.7798 8.15851 40.5776 7.67087C40.3754 7.17727 40.2743 6.56772 40.2743 5.84219C40.2743 5.1583 40.3665 4.56956 40.5508 4.07596C40.7411 3.58237 41.0117 3.20177 41.3626 2.93416C41.7134 2.6606 42.1357 2.52382 42.6293 2.52382C43.0158 2.52382 43.3578 2.61005 43.6551 2.78251C43.9584 2.95497 44.2111 3.19582 44.4133 3.50506C44.6155 3.80835 44.7612 4.15922 44.8504 4.55766L44.0476 4.61119C43.9465 4.21869 43.777 3.89756 43.5391 3.64779C43.3072 3.39802 43.0039 3.27313 42.6293 3.27313C42.3022 3.27313 42.0227 3.37423 41.7907 3.57642C41.5588 3.77267 41.3804 4.06407 41.2555 4.45062C41.1366 4.83122 41.0771 5.29508 41.0771 5.84219C41.0771 6.38336 41.1396 6.84425 41.2644 7.22485C41.3893 7.60545 41.5677 7.89685 41.7997 8.09904C42.0375 8.29529 42.326 8.39342 42.6649 8.39342C42.9682 8.39342 43.2269 8.31611 43.441 8.16149C43.661 8.00092 43.8335 7.78088 43.9584 7.50138C44.0833 7.21593 44.1517 6.89182 44.1636 6.52906H42.6471V5.79759H44.8772V9H44.1636L44.1279 7.50138L44.342 7.57274C44.2587 7.87604 44.1427 8.14662 43.9941 8.3845C43.8513 8.62237 43.664 8.8097 43.4321 8.94648C43.2061 9.07731 42.9266 9.14273 42.5936 9.14273ZM45.5695 8.70563V7.93848L49.0841 6.3685V6.47554L45.5695 4.90556V4.13841L49.6372 5.94924V6.8948L45.5695 8.70563Z" fill="#878787"/>
<rect x="0.371681" y="14.3453" width="111.504" height="69.8761" rx="2.60177" fill="#0C0C0C"/>
<rect x="0.371681" y="14.3453" width="111.504" height="69.8761" rx="2.60177" fill="url(#paint0_linear_327_357)" fill-opacity="0.2"/>
<rect x="0.371681" y="14.3453" width="111.504" height="69.8761" rx="2.60177" stroke="#1B1B1B" stroke-width="0.743363"/>
<g clip-path="url(#clip0_327_357)">
<path d="M56.1199 24.7524L55.791 25.8702V58.3038L56.1199 58.6321L71.1752 49.7329L56.1199 24.7524Z" fill="#343434"/>
<path d="M56.1198 24.7524L41.0645 49.7329L56.1198 58.6322V42.8899V24.7524Z" fill="#8C8C8C"/>
<path d="M56.1209 61.4826L55.9355 61.7085V73.2621L56.1209 73.8033L71.1853 52.5879L56.1209 61.4826Z" fill="#3C3C3B"/>
<path d="M56.1198 73.8034V61.4826L41.0645 52.5879L56.1198 73.8034Z" fill="#8C8C8C"/>
<path d="M56.1191 58.6322L71.1742 49.7332L56.1191 42.8901V58.6322Z" fill="#141414"/>
<path d="M41.0645 49.7332L56.1196 58.6323V42.8901L41.0645 49.7332Z" fill="#393939"/>
</g>
<defs>
<linearGradient id="paint0_linear_327_357" x1="56.1239" y1="13.9736" x2="56.1239" y2="84.5931" gradientUnits="userSpaceOnUse">
<stop stop-opacity="0"/>
<stop offset="1" stop-color="#323232"/>
</linearGradient>
<clipPath id="clip0_327_357">
<rect width="30.1241" height="49.062" fill="white" transform="translate(41.0625 24.7524)"/>
</clipPath>
</defs>
</svg>
