<svg width="314" height="301" viewBox="0 0 314 301" fill="none" xmlns="http://www.w3.org/2000/svg">
<path d="M118.897 299.675C90.8054 292.874 66.6432 279.272 46.2656 259.434C27.9256 241.581 14.9713 220.611 7.40248 196.523C-1.91302 167.053 -2.64079 137.156 6.3836 107.684C20.9391 59.3679 52.5243 25.6457 100.412 6.65919C104.626 5.05396 108.956 3.7294 113.291 2.40284C115.844 1.62173 118.4 0.839939 120.935 -0.000244141C121.008 0.212295 121.044 0.389401 121.081 0.566521C121.117 0.743628 121.153 0.920723 121.226 1.13326C89.4954 26.6374 92.9886 66.4523 115.986 87.9893C138.547 109.101 173.771 109.101 196.333 88.6978C220.058 67.1608 223.114 22.3867 190.948 0.141444C191.97 0.410548 192.992 0.674544 194.015 0.938297C198.374 2.06318 202.713 3.18339 206.958 4.67552C250.625 20.1198 282.356 48.316 300.549 89.6894C318.162 129.221 318.453 169.745 301.568 209.701C285.413 248.099 257.175 275.587 218.166 292.165C210.305 295.566 202.445 298.115 194.586 300.1L191.529 299.392L225.59 226.278L177.556 280.403L156.887 125.679L134.617 280.403L88.4766 226.278L121.372 299.392L119.334 299.815C119.188 299.675 119.043 299.675 118.897 299.675Z" fill="white"/>
<path d="M160.23 76.2312C162.123 63.3373 172.603 52.9941 185.993 51.1519C189.341 50.5853 189.341 45.7678 185.993 45.3428C172.749 43.5007 162.123 33.2992 160.23 20.2636C159.793 16.863 154.7 16.863 154.262 20.2636C152.37 33.1575 141.891 43.5007 128.5 45.3428C125.006 45.7678 125.006 50.727 128.5 51.1519C141.745 52.9941 152.37 63.1956 154.262 76.2312C154.7 79.6318 159.793 79.6318 160.23 76.2312Z" fill="white"/>
</svg>
