<svg width="390" height="131" viewBox="0 0 390 131" fill="none" xmlns="http://www.w3.org/2000/svg">
<path d="M5.28 9.67L0.72 7.64V6.58L5.28 4.55V5.41L1.34 7.17V7.05L5.28 8.81V9.67ZM6.49609 10V2.9H8.17609C8.78943 2.9 9.32276 3.04 9.77609 3.32C10.2361 3.59333 10.5894 3.99667 10.8361 4.53C11.0894 5.05667 11.2161 5.7 11.2161 6.46C11.2161 7.22 11.0894 7.86333 10.8361 8.39C10.5894 8.91667 10.2361 9.31667 9.77609 9.59C9.32276 9.86333 8.78943 10 8.17609 10H6.49609ZM7.35609 9.16H8.12609C8.81943 9.16 9.35609 8.93667 9.73609 8.49C10.1228 8.03667 10.3161 7.36 10.3161 6.46C10.3161 5.56 10.1228 4.88333 9.73609 4.43C9.35609 3.97 8.81943 3.74 8.12609 3.74H7.35609V9.16ZM12.0922 10V2.9H16.4122V3.74H12.9522V6.03H16.2922V6.85H12.9522V9.16H16.4922V10H12.0922ZM17.6883 10V2.9H19.8483C20.3416 2.9 20.7716 2.98667 21.1383 3.16C21.5049 3.33333 21.7883 3.58333 21.9883 3.91C22.1883 4.23 22.2883 4.61667 22.2883 5.07C22.2883 5.52333 22.1883 5.91333 21.9883 6.24C21.7883 6.56 21.5049 6.80667 21.1383 6.98C20.7716 7.15333 20.3416 7.24 19.8483 7.24H18.5483V10H17.6883ZM18.5483 6.4H19.7483C20.3083 6.4 20.7216 6.28667 20.9883 6.06C21.2549 5.82667 21.3883 5.49667 21.3883 5.07C21.3883 4.63667 21.2549 4.30667 20.9883 4.08C20.7216 3.85333 20.3083 3.74 19.7483 3.74H18.5483V6.4ZM25.3844 10.16C24.8244 10.16 24.3477 10.0167 23.9544 9.73C23.5677 9.44333 23.271 9.02333 23.0644 8.47C22.8644 7.91667 22.7644 7.24667 22.7644 6.46C22.7644 5.66 22.8644 4.98333 23.0644 4.43C23.271 3.87667 23.5677 3.45667 23.9544 3.17C24.3477 2.88333 24.8244 2.74 25.3844 2.74C25.9444 2.74 26.4177 2.88333 26.8044 3.17C27.1977 3.45667 27.4944 3.87667 27.6944 4.43C27.901 4.98333 28.0044 5.66 28.0044 6.46C28.0044 7.24667 27.901 7.91667 27.6944 8.47C27.4944 9.02333 27.1977 9.44333 26.8044 9.73C26.4177 10.0167 25.9444 10.16 25.3844 10.16ZM25.3844 9.32C25.751 9.32 26.061 9.21333 26.3144 9C26.5744 8.78 26.771 8.45667 26.9044 8.03C27.0377 7.60333 27.1044 7.08 27.1044 6.46C27.1044 5.84 27.0377 5.31667 26.9044 4.89C26.771 4.45667 26.5744 4.13 26.3144 3.91C26.061 3.69 25.751 3.58 25.3844 3.58C25.0177 3.58 24.7044 3.69 24.4444 3.91C24.191 4.13 23.9977 4.45667 23.8644 4.89C23.731 5.31667 23.6644 5.84 23.6644 6.46C23.6644 7.08 23.731 7.60333 23.8644 8.03C23.9977 8.45667 24.191 8.78 24.4444 9C24.7044 9.21333 25.0177 9.32 25.3844 9.32ZM31.0905 10.16C30.5905 10.16 30.1471 10.0567 29.7605 9.85C29.3738 9.64333 29.0638 9.36 28.8305 9C28.5971 8.63333 28.4605 8.21 28.4205 7.73L29.3205 7.67C29.3671 8.02333 29.4671 8.32333 29.6205 8.57C29.7805 8.81667 29.9838 9.00333 30.2305 9.13C30.4838 9.25667 30.7771 9.32 31.1105 9.32C31.4438 9.32 31.7238 9.28 31.9505 9.2C32.1771 9.11333 32.3471 8.99 32.4605 8.83C32.5805 8.66333 32.6405 8.46667 32.6405 8.24C32.6405 8.01333 32.5871 7.81667 32.4805 7.65C32.3805 7.47667 32.1871 7.31667 31.9005 7.17C31.6205 7.02333 31.2038 6.87333 30.6505 6.72C30.1571 6.58 29.7571 6.42667 29.4505 6.26C29.1505 6.09333 28.9305 5.89 28.7905 5.65C28.6571 5.41 28.5905 5.11333 28.5905 4.76C28.5905 4.36 28.6838 4.01 28.8705 3.71C29.0638 3.40333 29.3371 3.16667 29.6905 3C30.0438 2.82667 30.4638 2.74 30.9505 2.74C31.4371 2.74 31.8538 2.84 32.2005 3.04C32.5471 3.23333 32.8205 3.5 33.0205 3.84C33.2271 4.18 33.3571 4.56667 33.4105 5L32.5105 5.06C32.4705 4.77333 32.3871 4.52 32.2605 4.3C32.1338 4.07333 31.9605 3.89667 31.7405 3.77C31.5205 3.64333 31.2505 3.58 30.9305 3.58C30.4905 3.58 30.1405 3.68667 29.8805 3.9C29.6205 4.10667 29.4905 4.38 29.4905 4.72C29.4905 4.94 29.5371 5.12333 29.6305 5.27C29.7305 5.41 29.9038 5.53667 30.1505 5.65C30.3971 5.75667 30.7438 5.87333 31.1905 6C31.7705 6.16 32.2305 6.34 32.5705 6.54C32.9171 6.74 33.1638 6.98 33.3105 7.26C33.4638 7.53333 33.5405 7.86667 33.5405 8.26C33.5405 8.63333 33.4371 8.96333 33.2305 9.25C33.0238 9.53667 32.7371 9.76 32.3705 9.92C32.0038 10.08 31.5771 10.16 31.0905 10.16ZM34.3766 10V9.16H36.1466V3.74H34.3766V2.9H38.7766V3.74H37.0066V9.16H38.7766V10H34.3766ZM41.7427 10V3.74H39.5727V2.9H44.7727V3.74H42.6027V10H41.7427ZM45.4887 9.67V8.81L49.4287 7.05V7.17L45.4887 5.41V4.55L50.0487 6.58V7.64L45.4887 9.67Z" fill="#9A9A9A"/>
<rect x="0.322917" y="16.3229" width="389.354" height="113.521" rx="7.67708" fill="#42A697"/>
<rect x="0.322917" y="16.3229" width="389.354" height="113.521" rx="7.67708" fill="#EDFEFE"/>
<rect x="0.322917" y="16.3229" width="389.354" height="113.521" rx="7.67708" stroke="#42A697" stroke-width="0.645833"/>
<path d="M15.7842 40L12.328 30.6026H13.5894L15.576 36.178C15.6896 36.4975 15.8304 36.9243 15.9986 37.4583C16.171 37.9923 16.3707 38.6503 16.5978 39.4324H16.3644C16.5915 38.6293 16.7891 37.9671 16.9573 37.4457C17.1255 36.9201 17.2642 36.4975 17.3735 36.178L19.3098 30.6026H20.5838L17.1654 40H15.7842ZM23.9646 40.1514C23.2834 40.1514 22.6948 40 22.1986 39.6973C21.7067 39.3945 21.3262 38.972 21.0571 38.4296C20.7922 37.8872 20.6597 37.2544 20.6597 36.5312C20.6597 35.808 20.7901 35.171 21.0507 34.6202C21.3114 34.0693 21.6793 33.6384 22.1545 33.3272C22.6338 33.0161 23.193 32.8605 23.8321 32.8605C24.2063 32.8605 24.5742 32.9236 24.9358 33.0497C25.3016 33.1717 25.6317 33.3714 25.926 33.6489C26.2246 33.9222 26.4621 34.2838 26.6387 34.7337C26.8153 35.1836 26.9036 35.7344 26.9036 36.3861V36.8591H21.4292V35.9005H26.2918L25.7621 36.2537C25.7621 35.7912 25.6885 35.3812 25.5413 35.0238C25.3983 34.6622 25.1839 34.3805 24.898 34.1787C24.6121 33.9726 24.2568 33.8696 23.8321 33.8696C23.4075 33.8696 23.0437 33.9747 22.741 34.185C22.4383 34.391 22.207 34.6622 22.0472 34.9986C21.8875 35.3307 21.8076 35.6881 21.8076 36.0708V36.7078C21.8076 37.2291 21.898 37.6727 22.0788 38.0385C22.2596 38.4001 22.5119 38.6755 22.8356 38.8647C23.1636 39.0498 23.542 39.1423 23.9709 39.1423C24.2484 39.1423 24.5007 39.1023 24.7277 39.0224C24.9548 38.9425 25.1503 38.8227 25.3143 38.6629C25.4782 38.4989 25.6044 38.2971 25.6927 38.0575L26.7901 38.3602C26.6808 38.7134 26.4958 39.0245 26.2351 39.2936C25.9744 39.5627 25.6506 39.7729 25.2638 39.9243C24.8812 40.0757 24.4481 40.1514 23.9646 40.1514ZM28.2725 40V32.9488H29.3699V34.0336H29.4456C29.5759 33.6762 29.8072 33.3903 30.1393 33.1759C30.4757 32.9572 30.8541 32.8479 31.2746 32.8479C31.3587 32.8479 31.4575 32.85 31.571 32.8542C31.6887 32.8584 31.7813 32.8626 31.8485 32.8668V34.0084C31.8149 34 31.7308 33.9874 31.5962 33.9705C31.4617 33.9537 31.3187 33.9453 31.1674 33.9453C30.831 33.9453 30.5283 34.0168 30.2592 34.1597C29.9943 34.2985 29.7861 34.4919 29.6348 34.74C29.4834 34.9839 29.4077 35.2656 29.4077 35.5851V40H28.2725ZM33.0849 40V32.9488H34.2202V40H33.0849ZM33.6589 31.7946C33.4444 31.7946 33.2594 31.7211 33.1039 31.5739C32.9483 31.4267 32.8705 31.2501 32.8705 31.0441C32.8705 30.8339 32.9483 30.6573 33.1039 30.5143C33.2594 30.3672 33.4444 30.2936 33.6589 30.2936C33.8775 30.2936 34.0646 30.3672 34.2202 30.5143C34.3758 30.6573 34.4536 30.8339 34.4536 31.0441C34.4536 31.2501 34.3758 31.4267 34.2202 31.5739C34.0646 31.7211 33.8775 31.7946 33.6589 31.7946ZM39.2345 32.9488V33.9201H35.0845V32.9488H39.2345ZM36.472 40V32.0091C36.472 31.6012 36.5666 31.2606 36.7558 30.9873C36.9493 30.714 37.1994 30.508 37.5064 30.3693C37.8133 30.2305 38.1371 30.1611 38.4777 30.1611C38.7467 30.1611 38.9696 30.1843 39.1462 30.2305C39.3228 30.2726 39.4531 30.3125 39.5372 30.3503L39.2219 31.3216C39.163 31.3006 39.0852 31.2775 38.9885 31.2522C38.896 31.227 38.7699 31.2144 38.6101 31.2144C38.2611 31.2144 38.0067 31.3048 37.847 31.4856C37.6872 31.6622 37.6073 31.9208 37.6073 32.2614V40H36.472ZM40.3637 42.5543L40.6538 41.5704L40.7736 41.602C41.0049 41.6608 41.2151 41.6756 41.4043 41.6461C41.5935 41.6209 41.7638 41.5284 41.9152 41.3686C42.0666 41.2088 42.199 40.9608 42.3125 40.6244L42.5144 40.0378L39.8213 32.9488H41.0638L42.5648 37.1303C42.7246 37.5676 42.8591 38.0007 42.9685 38.4296C43.0778 38.8584 43.1934 39.2747 43.3153 39.6783H42.8991C43.021 39.2747 43.1366 38.8584 43.246 38.4296C43.3595 37.9965 43.494 37.5634 43.6496 37.1303L45.1633 32.9488H46.3995L43.3027 41.0533C43.1598 41.4275 42.9874 41.7344 42.7856 41.9741C42.5879 42.2179 42.3567 42.3966 42.0918 42.5102C41.8269 42.6279 41.5284 42.6868 41.1962 42.6868C40.9944 42.6868 40.8199 42.6721 40.6727 42.6426C40.5256 42.6132 40.4226 42.5838 40.3637 42.5543ZM47.4845 40V32.9488H48.6198V40H47.4845ZM48.0584 31.7946C47.844 31.7946 47.659 31.7211 47.5034 31.5739C47.3479 31.4267 47.2701 31.2501 47.2701 31.0441C47.2701 30.8339 47.3479 30.6573 47.5034 30.5143C47.659 30.3672 47.844 30.2936 48.0584 30.2936C48.2771 30.2936 48.4642 30.3672 48.6198 30.5143C48.7753 30.6573 48.8531 30.8339 48.8531 31.0441C48.8531 31.2501 48.7753 31.4267 48.6198 31.5739C48.4642 31.7211 48.2771 31.7946 48.0584 31.7946ZM51.4897 35.7743V40H50.3544V32.9488H51.4455L51.4518 34.658H51.2942C51.5086 34.0063 51.8134 33.5438 52.2087 33.2705C52.6081 32.9972 53.0748 32.8605 53.6088 32.8605C54.0839 32.8605 54.5002 32.9593 54.8576 33.1569C55.215 33.3504 55.4925 33.6447 55.6901 34.0399C55.8919 34.4309 55.9929 34.925 55.9929 35.5221V40H54.8576V35.6167C54.8576 35.0743 54.7146 34.6496 54.4287 34.3427C54.147 34.0357 53.7602 33.8822 53.2682 33.8822C52.9319 33.8822 52.6291 33.9558 52.36 34.103C52.0909 34.2501 51.8786 34.4646 51.723 34.7463C51.5675 35.028 51.4897 35.3707 51.4897 35.7743ZM60.5846 42.7877C60.0632 42.7877 59.6112 42.7204 59.2286 42.5859C58.8502 42.4555 58.5348 42.281 58.2825 42.0624C58.0303 41.8437 57.8305 41.6062 57.6834 41.3497L58.6042 40.7568C58.7051 40.8914 58.8291 41.0406 58.9763 41.2046C59.1277 41.3686 59.3295 41.5074 59.5818 41.6209C59.8382 41.7386 60.1725 41.7975 60.5846 41.7975C61.148 41.7975 61.6105 41.6629 61.9721 41.3938C62.3379 41.1247 62.5208 40.7001 62.5208 40.1198V38.7071H62.4136C62.3337 38.8416 62.2202 39.0014 62.073 39.1864C61.9301 39.3714 61.7219 39.5354 61.4486 39.6783C61.1795 39.8171 60.8179 39.8865 60.3638 39.8865C59.8004 39.8865 59.2937 39.754 58.8439 39.4891C58.394 39.22 58.0387 38.829 57.778 38.316C57.5173 37.8031 57.3869 37.1787 57.3869 36.4429C57.3869 35.7155 57.5152 35.0848 57.7717 34.5508C58.0282 34.0126 58.3813 33.5963 58.8312 33.302C59.2853 33.0077 59.8046 32.8605 60.3891 32.8605C60.8432 32.8605 61.2048 32.9362 61.4739 33.0876C61.7472 33.2347 61.9574 33.405 62.1046 33.5984C62.2517 33.7918 62.3652 33.9516 62.4451 34.0778H62.5523V32.9488H63.6561V40.1829C63.6561 40.7884 63.5194 41.2824 63.2461 41.665C62.9728 42.0519 62.6028 42.3357 62.1361 42.5165C61.6736 42.6973 61.1564 42.7877 60.5846 42.7877ZM60.553 38.8774C60.9819 38.8774 61.3435 38.7807 61.6378 38.5872C61.9322 38.3896 62.155 38.1079 62.3064 37.7421C62.4577 37.3721 62.5334 36.9306 62.5334 36.4176C62.5334 35.9173 62.4577 35.4779 62.3064 35.0995C62.1592 34.7169 61.9385 34.4183 61.6441 34.2039C61.3498 33.9853 60.9861 33.8759 60.553 33.8759C60.1073 33.8759 59.7352 33.9916 59.4367 34.2228C59.1382 34.4499 58.9132 34.7547 58.7619 35.1373C58.6147 35.52 58.5411 35.9467 58.5411 36.4176C58.5411 36.9012 58.6168 37.3279 58.7682 37.698C58.9195 38.068 59.1445 38.3581 59.443 38.5683C59.7415 38.7743 60.1116 38.8774 60.553 38.8774ZM71.4078 40.1514C70.8234 40.1514 70.3062 40.0021 69.8563 39.7036C69.4064 39.405 69.0553 38.9825 68.8031 38.4359C68.5508 37.8893 68.4246 37.2418 68.4246 36.4933C68.4246 35.7491 68.5508 35.1058 68.8031 34.5634C69.0595 34.0168 69.4127 33.5963 69.8626 33.302C70.3125 33.0077 70.8297 32.8605 71.4141 32.8605C71.8724 32.8605 72.2361 32.9362 72.5052 33.0876C72.7743 33.2389 72.9804 33.4113 73.1233 33.6047C73.2705 33.7939 73.3819 33.9516 73.4576 34.0778H73.5459V30.6026H74.6811V40H73.5837V38.9089H73.4576C73.3819 39.0392 73.2684 39.2032 73.117 39.4008C72.9699 39.5943 72.7596 39.7687 72.4863 39.9243C72.2172 40.0757 71.8577 40.1514 71.4078 40.1514ZM71.5781 39.1359C72.007 39.1359 72.3686 39.0245 72.6629 38.8017C72.9572 38.5746 73.1801 38.2614 73.3315 37.8619C73.4828 37.4625 73.5585 37.0021 73.5585 36.4807C73.5585 35.9593 73.4828 35.5052 73.3315 35.1184C73.1843 34.7274 72.9636 34.4225 72.6692 34.2039C72.3749 33.9853 72.0112 33.8759 71.5781 33.8759C71.1324 33.8759 70.7603 33.9916 70.4618 34.2228C70.1675 34.4541 69.9467 34.7673 69.7996 35.1626C69.6524 35.5536 69.5788 35.993 69.5788 36.4807C69.5788 36.9727 69.6524 37.4205 69.7996 37.8241C69.9509 38.2235 70.1759 38.5431 70.4744 38.7828C70.7729 39.0182 71.1408 39.1359 71.5781 39.1359ZM79.3801 40.1514C78.6989 40.1514 78.1103 40 77.6141 39.6973C77.1222 39.3945 76.7417 38.972 76.4726 38.4296C76.2077 37.8872 76.0752 37.2544 76.0752 36.5312C76.0752 35.808 76.2056 35.171 76.4663 34.6202C76.727 34.0693 77.0949 33.6384 77.57 33.3272C78.0493 33.0161 78.6085 32.8605 79.2476 32.8605C79.6219 32.8605 79.9898 32.9236 80.3514 33.0497C80.7172 33.1717 81.0472 33.3714 81.3416 33.6489C81.6401 33.9222 81.8776 34.2838 82.0542 34.7337C82.2308 35.1836 82.3191 35.7344 82.3191 36.3861V36.8591H76.8447V35.9005H81.7074L81.1776 36.2537C81.1776 35.7912 81.104 35.3812 80.9568 35.0238C80.8139 34.6622 80.5994 34.3805 80.3135 34.1787C80.0276 33.9726 79.6723 33.8696 79.2476 33.8696C78.823 33.8696 78.4593 33.9747 78.1565 34.185C77.8538 34.391 77.6225 34.6622 77.4628 34.9986C77.303 35.3307 77.2231 35.6881 77.2231 36.0708V36.7078C77.2231 37.2291 77.3135 37.6727 77.4943 38.0385C77.6751 38.4001 77.9274 38.6755 78.2511 38.8647C78.5791 39.0498 78.9575 39.1423 79.3864 39.1423C79.6639 39.1423 79.9162 39.1023 80.1432 39.0224C80.3703 38.9425 80.5658 38.8227 80.7298 38.6629C80.8938 38.4989 81.0199 38.2971 81.1082 38.0575L82.2056 38.3602C82.0963 38.7134 81.9113 39.0245 81.6506 39.2936C81.3899 39.5627 81.0662 39.7729 80.6793 39.9243C80.2967 40.0757 79.8636 40.1514 79.3801 40.1514ZM83.688 42.6363V32.9488H84.7854V34.0778H84.9115C84.9914 33.9516 85.1029 33.7939 85.2458 33.6047C85.3888 33.4113 85.5948 33.2389 85.8639 33.0876C86.133 32.9362 86.4967 32.8605 86.955 32.8605C87.5437 32.8605 88.0608 33.0077 88.5065 33.302C88.9564 33.5963 89.3075 34.0168 89.5598 34.5634C89.8163 35.1058 89.9445 35.7491 89.9445 36.4933C89.9445 37.2418 89.8184 37.8893 89.5661 38.4359C89.3138 38.9825 88.9627 39.405 88.5128 39.7036C88.0671 40.0021 87.55 40.1514 86.9613 40.1514C86.5156 40.1514 86.1561 40.0757 85.8828 39.9243C85.6095 39.7687 85.3993 39.5943 85.2521 39.4008C85.105 39.2032 84.9914 39.0392 84.9115 38.9089H84.8233V42.6363H83.688ZM86.791 39.1359C87.2325 39.1359 87.6004 39.0182 87.8947 38.7828C88.1933 38.5431 88.4161 38.2235 88.5633 37.8241C88.7147 37.4205 88.7903 36.9727 88.7903 36.4807C88.7903 35.993 88.7168 35.5536 88.5696 35.1626C88.4224 34.7673 88.1996 34.4541 87.9011 34.2228C87.6067 33.9916 87.2367 33.8759 86.791 33.8759C86.3579 33.8759 85.9942 33.9853 85.6999 34.2039C85.4056 34.4225 85.1827 34.7274 85.0314 35.1184C84.8842 35.5052 84.8106 35.9593 84.8106 36.4807C84.8106 37.0021 84.8863 37.4625 85.0377 37.8619C85.1891 38.2614 85.4119 38.5746 85.7062 38.8017C86.0048 39.0245 86.3664 39.1359 86.791 39.1359ZM94.2083 40.1514C93.5692 40.1514 93.0078 40 92.5243 39.6973C92.045 39.3945 91.6708 38.9699 91.4017 38.4233C91.1326 37.8767 90.998 37.2418 90.998 36.5186C90.998 35.7827 91.1326 35.1415 91.4017 34.5949C91.6708 34.0441 92.045 33.6174 92.5243 33.3146C93.0078 33.0119 93.5692 32.8605 94.2083 32.8605C94.8516 32.8605 95.415 33.0119 95.8985 33.3146C96.3821 33.6174 96.7584 34.0441 97.0275 34.5949C97.2966 35.1415 97.4311 35.7827 97.4311 36.5186C97.4311 37.2418 97.2966 37.8767 97.0275 38.4233C96.7584 38.9699 96.3821 39.3945 95.8985 39.6973C95.415 40 94.8516 40.1514 94.2083 40.1514ZM94.2083 39.1359C94.6834 39.1359 95.0744 39.014 95.3814 38.7701C95.6883 38.5263 95.9154 38.2067 96.0625 37.8115C96.2097 37.412 96.2833 36.9811 96.2833 36.5186C96.2833 36.0518 96.2097 35.6188 96.0625 35.2193C95.9154 34.8157 95.6883 34.4919 95.3814 34.248C95.0744 34 94.6834 33.8759 94.2083 33.8759C93.7374 33.8759 93.3505 34 93.0478 34.248C92.7451 34.4919 92.5201 34.8136 92.3729 35.213C92.2258 35.6125 92.1522 36.0476 92.1522 36.5186C92.1522 36.9811 92.2258 37.412 92.3729 37.8115C92.5201 38.2067 92.7451 38.5263 93.0478 38.7701C93.3505 39.014 93.7374 39.1359 94.2083 39.1359ZM101.222 40.1514C100.738 40.1514 100.307 40.082 99.9289 39.9432C99.5547 39.8003 99.2457 39.59 99.0018 39.3125C98.7579 39.035 98.594 38.6945 98.5099 38.2908L99.5884 38.0322C99.6893 38.4191 99.8785 38.7029 100.156 38.8837C100.438 39.0645 100.789 39.1549 101.209 39.1549C101.701 39.1549 102.092 39.0498 102.382 38.8395C102.677 38.6293 102.824 38.3791 102.824 38.089C102.824 37.8451 102.738 37.6433 102.565 37.4835C102.397 37.3195 102.138 37.1976 101.789 37.1177L100.616 36.8402C99.9773 36.6888 99.5022 36.4555 99.191 36.1401C98.8799 35.8206 98.7243 35.4127 98.7243 34.9166C98.7243 34.5129 98.8378 34.1576 99.0649 33.8507C99.2919 33.5396 99.601 33.2978 99.992 33.1254C100.387 32.9488 100.835 32.8605 101.335 32.8605C101.819 32.8605 102.229 32.9341 102.565 33.0813C102.906 33.2242 103.181 33.4239 103.391 33.6804C103.606 33.9327 103.766 34.2249 103.871 34.5571L102.843 34.822C102.746 34.5697 102.584 34.3405 102.357 34.1345C102.134 33.9285 101.796 33.8255 101.342 33.8255C100.921 33.8255 100.57 33.9222 100.288 34.1156C100.011 34.309 99.8722 34.5529 99.8722 34.8472C99.8722 35.1079 99.9668 35.3181 100.156 35.4779C100.345 35.6335 100.646 35.7596 101.058 35.8563L102.124 36.1086C102.763 36.26 103.236 36.4954 103.543 36.815C103.85 37.1303 104.003 37.5298 104.003 38.0133C104.003 38.4254 103.886 38.7933 103.65 39.117C103.419 39.4366 103.093 39.6889 102.672 39.8739C102.256 40.0589 101.773 40.1514 101.222 40.1514ZM105.391 40V32.9488H106.526V40H105.391ZM105.965 31.7946C105.751 31.7946 105.566 31.7211 105.41 31.5739C105.254 31.4267 105.177 31.2501 105.177 31.0441C105.177 30.8339 105.254 30.6573 105.41 30.5143C105.566 30.3672 105.751 30.2936 105.965 30.2936C106.184 30.2936 106.371 30.3672 106.526 30.5143C106.682 30.6573 106.76 30.8339 106.76 31.0441C106.76 31.2501 106.682 31.4267 106.526 31.5739C106.371 31.7211 106.184 31.7946 105.965 31.7946ZM111.036 32.9488V33.9201H107.391V32.9488H111.036ZM108.45 31.2712H109.585V38.171C109.585 38.4863 109.648 38.7176 109.775 38.8647C109.905 39.0077 110.119 39.0792 110.418 39.0792C110.489 39.0792 110.58 39.0708 110.689 39.054C110.803 39.0371 110.906 39.0203 110.998 39.0035L111.232 39.9622C111.114 40.0042 110.979 40.0357 110.828 40.0568C110.681 40.0778 110.534 40.0883 110.386 40.0883C109.777 40.0883 109.302 39.9285 108.961 39.609C108.62 39.2852 108.45 38.8353 108.45 38.2593V31.2712Z" fill="#42A697"/>
<g clip-path="url(#clip0_327_498)">
<rect x="12" y="56.0415" width="328" height="7" rx="3.5" fill="white"/>
<rect x="12" y="55.0625" width="283" height="9" fill="#92F6E7"/>
<rect x="13.0781" y="54.4648" width="2" height="8.72935" transform="rotate(22.4955 13.0781 54.4648)" fill="#42A697"/>
<rect x="13.0781" y="54.4648" width="2" height="11.7978" transform="rotate(22.4955 13.0781 54.4648)" fill="#42A697"/>
<rect x="19.4395" y="54.4648" width="2" height="11.7978" transform="rotate(22.4955 19.4395 54.4648)" fill="#42A697"/>
<rect x="25.8027" y="54.4648" width="2" height="11.7978" transform="rotate(22.4955 25.8027 54.4648)" fill="#42A697"/>
<rect x="32.1641" y="54.4648" width="2" height="11.7978" transform="rotate(22.4955 32.1641 54.4648)" fill="#42A697"/>
<rect x="38.5254" y="54.4648" width="2" height="11.7978" transform="rotate(22.4955 38.5254 54.4648)" fill="#42A697"/>
<rect x="44.8867" y="54.4648" width="2" height="11.7978" transform="rotate(22.4955 44.8867 54.4648)" fill="#42A697"/>
<rect x="51.25" y="54.4648" width="2" height="11.7978" transform="rotate(22.4955 51.25 54.4648)" fill="#42A697"/>
<rect x="57.6113" y="54.4648" width="2" height="11.7978" transform="rotate(22.4955 57.6113 54.4648)" fill="#42A697"/>
<rect x="63.9727" y="54.4648" width="2" height="11.7978" transform="rotate(22.4955 63.9727 54.4648)" fill="#42A697"/>
<rect x="70.334" y="54.4648" width="2" height="11.7978" transform="rotate(22.4955 70.334 54.4648)" fill="#42A697"/>
<rect x="76.6973" y="54.4648" width="2" height="11.7978" transform="rotate(22.4955 76.6973 54.4648)" fill="#42A697"/>
<rect x="83.0586" y="54.4648" width="2" height="11.7978" transform="rotate(22.4955 83.0586 54.4648)" fill="#42A697"/>
<rect x="89.4199" y="54.4648" width="2" height="11.7978" transform="rotate(22.4955 89.4199 54.4648)" fill="#42A697"/>
<rect x="95.7812" y="54.4648" width="2" height="11.7978" transform="rotate(22.4955 95.7812 54.4648)" fill="#42A697"/>
<rect x="102.145" y="54.4648" width="2" height="11.7978" transform="rotate(22.4955 102.145 54.4648)" fill="#42A697"/>
<rect x="108.506" y="54.4648" width="2" height="11.7978" transform="rotate(22.4955 108.506 54.4648)" fill="#42A697"/>
<rect x="114.867" y="54.4648" width="2" height="11.7978" transform="rotate(22.4955 114.867 54.4648)" fill="#42A697"/>
<rect x="121.229" y="54.4648" width="2" height="11.7978" transform="rotate(22.4955 121.229 54.4648)" fill="#42A697"/>
<rect x="127.592" y="54.4648" width="2" height="11.7978" transform="rotate(22.4955 127.592 54.4648)" fill="#42A697"/>
<rect x="133.953" y="54.4648" width="2" height="11.7978" transform="rotate(22.4955 133.953 54.4648)" fill="#42A697"/>
<rect x="140.314" y="54.4648" width="2" height="11.7978" transform="rotate(22.4955 140.314 54.4648)" fill="#42A697"/>
<rect x="146.676" y="54.4648" width="2" height="11.7978" transform="rotate(22.4955 146.676 54.4648)" fill="#42A697"/>
<rect x="153.039" y="54.4648" width="2" height="11.7978" transform="rotate(22.4955 153.039 54.4648)" fill="#42A697"/>
<rect x="159.4" y="54.4648" width="2" height="11.7978" transform="rotate(22.4955 159.4 54.4648)" fill="#42A697"/>
<rect x="165.762" y="54.4648" width="2" height="11.7978" transform="rotate(22.4955 165.762 54.4648)" fill="#42A697"/>
<rect x="172.123" y="54.4648" width="2" height="11.7978" transform="rotate(22.4955 172.123 54.4648)" fill="#42A697"/>
<rect x="178.486" y="54.4648" width="2" height="11.7978" transform="rotate(22.4955 178.486 54.4648)" fill="#42A697"/>
<rect x="184.848" y="54.4648" width="2" height="11.7978" transform="rotate(22.4955 184.848 54.4648)" fill="#42A697"/>
<rect x="191.209" y="54.4648" width="2" height="11.7978" transform="rotate(22.4955 191.209 54.4648)" fill="#42A697"/>
<rect x="197.57" y="54.4648" width="2" height="11.7978" transform="rotate(22.4955 197.57 54.4648)" fill="#42A697"/>
<rect x="203.934" y="54.4648" width="2" height="11.7978" transform="rotate(22.4955 203.934 54.4648)" fill="#42A697"/>
<rect x="210.295" y="54.4648" width="2" height="11.7978" transform="rotate(22.4955 210.295 54.4648)" fill="#42A697"/>
<rect x="216.656" y="54.4648" width="2" height="11.7978" transform="rotate(22.4955 216.656 54.4648)" fill="#42A697"/>
<rect x="223.018" y="54.4648" width="2" height="11.7978" transform="rotate(22.4955 223.018 54.4648)" fill="#42A697"/>
<rect x="229.381" y="54.4648" width="2" height="11.7978" transform="rotate(22.4955 229.381 54.4648)" fill="#42A697"/>
<rect x="235.742" y="54.4648" width="2" height="11.7978" transform="rotate(22.4955 235.742 54.4648)" fill="#42A697"/>
<rect x="242.104" y="54.4648" width="2" height="11.7978" transform="rotate(22.4955 242.104 54.4648)" fill="#42A697"/>
<rect x="248.465" y="54.4648" width="2" height="11.7978" transform="rotate(22.4955 248.465 54.4648)" fill="#42A697"/>
<rect x="254.828" y="54.4648" width="2" height="11.7978" transform="rotate(22.4955 254.828 54.4648)" fill="#42A697"/>
<rect x="261.189" y="54.4648" width="2" height="11.7978" transform="rotate(22.4955 261.189 54.4648)" fill="#42A697"/>
<rect x="267.551" y="54.4648" width="2" height="11.7978" transform="rotate(22.4955 267.551 54.4648)" fill="#42A697"/>
<rect x="273.912" y="54.4648" width="2" height="11.7978" transform="rotate(22.4955 273.912 54.4648)" fill="#42A697"/>
<rect x="280.275" y="54.4648" width="2" height="11.7978" transform="rotate(22.4955 280.275 54.4648)" fill="#42A697"/>
<rect x="286.637" y="54.4648" width="2" height="11.7978" transform="rotate(22.4955 286.637 54.4648)" fill="#42A697"/>
<rect x="292.998" y="54.4648" width="2" height="11.7978" transform="rotate(22.4955 292.998 54.4648)" fill="#42A697"/>
</g>
<path d="M352.992 64.1676C352.357 64.1676 351.796 64.0562 351.308 63.8334C350.825 63.6063 350.446 63.2952 350.173 62.8999C349.904 62.5047 349.769 62.0527 349.769 61.5439C349.769 61.1487 349.849 60.7829 350.009 60.4465C350.169 60.106 350.388 59.8221 350.665 59.5951C350.943 59.368 351.256 59.223 351.605 59.1599V59.1095C351.146 58.9917 350.783 58.7373 350.514 58.3463C350.245 57.9553 350.11 57.5117 350.11 57.0155C350.11 56.5362 350.234 56.1094 350.482 55.7352C350.73 55.3568 351.071 55.0604 351.504 54.8459C351.937 54.6273 352.433 54.518 352.992 54.518C353.543 54.518 354.035 54.6273 354.468 54.8459C354.901 55.0604 355.242 55.3568 355.49 55.7352C355.742 56.1094 355.868 56.5362 355.868 57.0155C355.868 57.5117 355.732 57.9553 355.458 58.3463C355.189 58.7373 354.832 58.9917 354.386 59.1095V59.1599C354.727 59.223 355.036 59.368 355.313 59.5951C355.591 59.8221 355.812 60.106 355.976 60.4465C356.139 60.7829 356.221 61.1487 356.221 61.5439C356.221 62.0527 356.083 62.5047 355.805 62.8999C355.532 63.2952 355.151 63.6063 354.664 63.8334C354.18 64.0562 353.623 64.1676 352.992 64.1676ZM352.992 63.127C353.409 63.127 353.768 63.0597 354.071 62.9252C354.374 62.7864 354.607 62.5951 354.771 62.3512C354.939 62.1032 355.023 61.813 355.023 61.4809C355.023 61.1319 354.935 60.825 354.758 60.5601C354.582 60.291 354.34 60.0807 354.033 59.9294C353.726 59.7738 353.379 59.696 352.992 59.696C352.597 59.696 352.246 59.7738 351.939 59.9294C351.632 60.0807 351.39 60.291 351.214 60.5601C351.037 60.825 350.949 61.1319 350.949 61.4809C350.949 61.813 351.031 62.1032 351.195 62.3512C351.359 62.5951 351.594 62.7864 351.901 62.9252C352.208 63.0597 352.572 63.127 352.992 63.127ZM352.992 58.6932C353.324 58.6932 353.619 58.628 353.875 58.4977C354.132 58.3631 354.334 58.176 354.481 57.9364C354.632 57.6967 354.708 57.4192 354.708 57.1038C354.708 56.7885 354.636 56.5152 354.493 56.2839C354.35 56.0527 354.149 55.874 353.888 55.7478C353.631 55.6175 353.333 55.5523 352.992 55.5523C352.648 55.5523 352.345 55.6175 352.084 55.7478C351.828 55.874 351.628 56.0527 351.485 56.2839C351.342 56.5152 351.271 56.7885 351.271 57.1038C351.271 57.4192 351.342 57.6967 351.485 57.9364C351.632 58.176 351.836 58.3631 352.097 58.4977C352.357 58.628 352.656 58.6932 352.992 58.6932ZM357.496 62.1305V61.1529L361.608 54.6441H362.333V56.1452H361.848L358.776 61.0015V61.0772H364.339V62.1305H357.496ZM361.917 64.0415V61.8404L361.923 61.38V54.6441H363.065V64.0415H361.917ZM368.13 58.8004C367.73 58.8004 367.392 58.7142 367.114 58.5418C366.841 58.3652 366.633 58.1319 366.49 57.8418C366.351 57.5516 366.282 57.2342 366.282 56.8894V56.3975C366.282 56.0527 366.353 55.7373 366.496 55.4514C366.639 55.1613 366.847 54.93 367.12 54.7577C367.398 54.5811 367.734 54.4928 368.13 54.4928C368.533 54.4928 368.87 54.5811 369.139 54.7577C369.412 54.93 369.618 55.1613 369.757 55.4514C369.895 55.7373 369.965 56.0527 369.965 56.3975V56.8894C369.965 57.2342 369.893 57.5516 369.75 57.8418C369.612 58.1319 369.406 58.3652 369.132 58.5418C368.863 58.7142 368.529 58.8004 368.13 58.8004ZM368.13 57.9742C368.449 57.9742 368.674 57.8649 368.804 57.6462C368.935 57.4234 369 57.1711 369 56.8894V56.3975C369 56.12 368.937 55.8698 368.811 55.6469C368.685 55.4241 368.457 55.3127 368.13 55.3127C367.814 55.3127 367.587 55.4241 367.448 55.6469C367.314 55.8698 367.247 56.12 367.247 56.3975V56.8894C367.247 57.1711 367.312 57.4234 367.442 57.6462C367.577 57.8649 367.806 57.9742 368.13 57.9742ZM374.228 64.2244C373.829 64.2244 373.49 64.1382 373.213 63.9658C372.94 63.7892 372.732 63.5559 372.589 63.2657C372.45 62.9756 372.38 62.6582 372.38 62.3134V61.8215C372.38 61.4767 372.452 61.1613 372.595 60.8754C372.738 60.5853 372.946 60.354 373.219 60.1816C373.497 60.005 373.833 59.9167 374.228 59.9167C374.632 59.9167 374.97 60.005 375.244 60.1816C375.517 60.354 375.721 60.5853 375.856 60.8754C375.994 61.1613 376.064 61.4767 376.064 61.8215V62.3134C376.064 62.6582 375.992 62.9756 375.849 63.2657C375.711 63.5559 375.504 63.7892 375.231 63.9658C374.962 64.1382 374.628 64.2244 374.228 64.2244ZM374.228 63.3982C374.548 63.3982 374.773 63.2889 374.903 63.0702C375.034 62.8474 375.099 62.5951 375.099 62.3134V61.8215C375.099 61.5439 375.036 61.2938 374.91 61.0709C374.783 60.8481 374.556 60.7367 374.228 60.7367C373.913 60.7367 373.686 60.8481 373.547 61.0709C373.413 61.2938 373.345 61.5439 373.345 61.8215V62.3134C373.345 62.5951 373.411 62.8474 373.541 63.0702C373.675 63.2889 373.905 63.3982 374.228 63.3982ZM367.379 64.0415L373.837 54.6441H374.903L368.445 64.0415H367.379Z" fill="black"/>
<line opacity="0.1" x1="12" y1="75.5835" x2="378" y2="75.5835" stroke="black"/>
<g opacity="0.7">
<path d="M12.26 95.125L14.42 88.025H15.58L17.74 95.125H16.82L15 88.805L13.18 95.125H12.26ZM13.35 93.105L13.65 92.265H16.35L16.65 93.105H13.35ZM17.9961 95.125V89.825H18.7661L18.7961 91.005L18.6961 90.985C18.7561 90.5917 18.8828 90.2817 19.0761 90.055C19.2761 89.8217 19.5294 89.705 19.8361 89.705C20.1494 89.705 20.3894 89.8183 20.5561 90.045C20.7294 90.2717 20.8361 90.605 20.8761 91.045H20.7761C20.8361 90.6317 20.9694 90.305 21.1761 90.065C21.3894 89.825 21.6561 89.705 21.9761 89.705C22.4028 89.705 22.7128 89.8517 22.9061 90.145C23.0994 90.4383 23.1961 90.925 23.1961 91.605V95.125H22.3561V91.725C22.3561 91.2517 22.3061 90.9217 22.2061 90.735C22.1061 90.5417 21.9494 90.445 21.7361 90.445C21.5961 90.445 21.4728 90.4917 21.3661 90.585C21.2594 90.6717 21.1728 90.8117 21.1061 91.005C21.0461 91.1983 21.0161 91.445 21.0161 91.745V95.125H20.1761V91.725C20.1761 91.2717 20.1261 90.945 20.0261 90.745C19.9328 90.545 19.7761 90.445 19.5561 90.445C19.4161 90.445 19.2928 90.4917 19.1861 90.585C19.0794 90.6717 18.9928 90.8117 18.9261 91.005C18.8661 91.1983 18.8361 91.445 18.8361 91.745V95.125H17.9961ZM26.1922 95.245C25.7055 95.245 25.2789 95.1317 24.9122 94.905C24.5522 94.6783 24.2722 94.3583 24.0722 93.945C23.8722 93.525 23.7722 93.035 23.7722 92.475C23.7722 91.9083 23.8722 91.4183 24.0722 91.005C24.2722 90.5917 24.5522 90.2717 24.9122 90.045C25.2789 89.8183 25.7055 89.705 26.1922 89.705C26.6789 89.705 27.1022 89.8183 27.4622 90.045C27.8289 90.2717 28.1122 90.5917 28.3122 91.005C28.5122 91.4183 28.6122 91.9083 28.6122 92.475C28.6122 93.035 28.5122 93.525 28.3122 93.945C28.1122 94.3583 27.8289 94.6783 27.4622 94.905C27.1022 95.1317 26.6789 95.245 26.1922 95.245ZM26.1922 94.445C26.6789 94.445 27.0555 94.2717 27.3222 93.925C27.5955 93.5717 27.7322 93.0883 27.7322 92.475C27.7322 91.8617 27.5955 91.3817 27.3222 91.035C27.0555 90.6817 26.6789 90.505 26.1922 90.505C25.7055 90.505 25.3255 90.6817 25.0522 91.035C24.7855 91.3817 24.6522 91.8617 24.6522 92.475C24.6522 93.0883 24.7855 93.5717 25.0522 93.925C25.3255 94.2717 25.7055 94.445 26.1922 94.445ZM31.4183 95.245C30.8916 95.245 30.4716 95.0683 30.1583 94.715C29.8449 94.355 29.6883 93.8617 29.6883 93.235V89.825H30.5283V93.005C30.5283 93.5183 30.6183 93.8983 30.7983 94.145C30.9849 94.385 31.2683 94.505 31.6483 94.505C32.0616 94.505 32.3883 94.3717 32.6283 94.105C32.8683 93.8317 32.9883 93.4583 32.9883 92.985V89.825H33.8283V95.125H33.0283V93.815L33.1583 93.885C33.0516 94.3183 32.8483 94.655 32.5483 94.895C32.2483 95.1283 31.8716 95.245 31.4183 95.245ZM35.2244 95.125V89.825H35.9944L36.0244 91.175L35.9244 91.085C35.991 90.7717 36.111 90.515 36.2844 90.315C36.4644 90.1083 36.6777 89.955 36.9244 89.855C37.171 89.755 37.431 89.705 37.7044 89.705C38.111 89.705 38.4477 89.795 38.7144 89.975C38.9877 90.155 39.1944 90.3983 39.3344 90.705C39.4744 91.005 39.5444 91.3417 39.5444 91.715V95.125H38.7044V91.955C38.7044 91.4617 38.6077 91.0883 38.4144 90.835C38.221 90.575 37.9244 90.445 37.5244 90.445C37.251 90.445 37.0044 90.505 36.7844 90.625C36.5644 90.7383 36.3877 90.9083 36.2544 91.135C36.1277 91.355 36.0644 91.6283 36.0644 91.955V95.125H35.2244ZM43.7605 95.125C43.2471 95.125 42.8638 95.005 42.6105 94.765C42.3571 94.525 42.2305 94.1583 42.2305 93.665V88.585H43.0705V93.665C43.0705 93.9117 43.1271 94.095 43.2405 94.215C43.3538 94.3283 43.5271 94.385 43.7605 94.385H45.1805V95.125H43.7605ZM40.4805 90.565V89.825H45.1805V90.565H40.4805Z" fill="black"/>
<path d="M323.94 95.285C323.173 95.285 322.583 95.1017 322.17 94.735C321.757 94.3617 321.533 93.8817 321.5 93.295L322.39 93.235C322.43 93.6683 322.59 93.9783 322.87 94.165C323.157 94.3517 323.513 94.445 323.94 94.445C324.227 94.445 324.497 94.405 324.75 94.325C325.003 94.2383 325.207 94.1017 325.36 93.915C325.52 93.7217 325.6 93.465 325.6 93.145C325.6 92.8317 325.53 92.575 325.39 92.375C325.25 92.1683 325.057 92.0183 324.81 91.925C324.57 91.825 324.297 91.775 323.99 91.775H323.43V90.935H323.99C324.237 90.935 324.463 90.8983 324.67 90.825C324.877 90.7517 325.04 90.635 325.16 90.475C325.287 90.3083 325.35 90.0917 325.35 89.825C325.35 89.4583 325.233 89.1817 325 88.995C324.767 88.8017 324.43 88.705 323.99 88.705C323.543 88.705 323.203 88.795 322.97 88.975C322.743 89.155 322.607 89.4017 322.56 89.715L321.66 89.655C321.727 89.1217 321.96 88.6917 322.36 88.365C322.76 88.0317 323.303 87.865 323.99 87.865C324.45 87.865 324.85 87.945 325.19 88.105C325.53 88.2583 325.79 88.4783 325.97 88.765C326.157 89.0517 326.25 89.3917 326.25 89.785C326.25 90.225 326.11 90.5817 325.83 90.855C325.557 91.1217 325.15 91.305 324.61 91.405V91.225C325.19 91.2917 325.65 91.4983 325.99 91.845C326.33 92.1917 326.5 92.625 326.5 93.145C326.5 93.5983 326.39 93.985 326.17 94.305C325.95 94.625 325.647 94.8683 325.26 95.035C324.873 95.2017 324.433 95.285 323.94 95.285ZM328.976 95.125V93.905H330.216V95.125H328.976ZM332.692 95.125C332.692 94.625 332.769 94.175 332.922 93.775C333.082 93.3683 333.359 92.9817 333.752 92.615C334.152 92.2483 334.706 91.8783 335.412 91.505C335.739 91.3317 336.002 91.1717 336.202 91.025C336.402 90.8783 336.549 90.7217 336.642 90.555C336.736 90.3883 336.782 90.185 336.782 89.945C336.782 89.6983 336.729 89.485 336.622 89.305C336.516 89.1183 336.356 88.9717 336.142 88.865C335.936 88.7583 335.676 88.705 335.362 88.705C334.862 88.705 334.466 88.835 334.172 89.095C333.886 89.355 333.706 89.725 333.632 90.205L332.732 90.145C332.812 89.4517 333.079 88.8983 333.532 88.485C333.986 88.0717 334.596 87.865 335.362 87.865C335.849 87.865 336.266 87.9517 336.612 88.125C336.959 88.2983 337.222 88.5417 337.402 88.855C337.589 89.1617 337.682 89.5183 337.682 89.925C337.682 90.285 337.622 90.5983 337.502 90.865C337.382 91.125 337.179 91.3683 336.892 91.595C336.612 91.8217 336.226 92.065 335.732 92.325C335.306 92.5517 334.946 92.7817 334.652 93.015C334.366 93.2483 334.146 93.475 333.992 93.695C333.846 93.9083 333.766 94.105 333.752 94.285H337.692V95.125H332.692ZM340.628 95.125V89.865H338.768V89.125H339.728C339.982 89.125 340.185 89.0883 340.338 89.015C340.498 88.9417 340.612 88.825 340.678 88.665C340.752 88.505 340.788 88.2917 340.788 88.025H341.488V95.125H340.628ZM338.388 95.125V94.285H343.188V95.125H338.388ZM346.224 95.125V89.865H344.364V89.125H345.324C345.578 89.125 345.781 89.0883 345.934 89.015C346.094 88.9417 346.208 88.825 346.274 88.665C346.348 88.505 346.384 88.2917 346.384 88.025H347.084V95.125H346.224ZM343.984 95.125V94.285H348.784V95.125H343.984ZM351.92 95.285C351.154 95.285 350.564 95.1017 350.15 94.735C349.737 94.3617 349.514 93.8817 349.48 93.295L350.37 93.235C350.41 93.6683 350.57 93.9783 350.85 94.165C351.137 94.3517 351.494 94.445 351.92 94.445C352.207 94.445 352.477 94.405 352.73 94.325C352.984 94.2383 353.187 94.1017 353.34 93.915C353.5 93.7217 353.58 93.465 353.58 93.145C353.58 92.8317 353.51 92.575 353.37 92.375C353.23 92.1683 353.037 92.0183 352.79 91.925C352.55 91.825 352.277 91.775 351.97 91.775H351.41V90.935H351.97C352.217 90.935 352.444 90.8983 352.65 90.825C352.857 90.7517 353.02 90.635 353.14 90.475C353.267 90.3083 353.33 90.0917 353.33 89.825C353.33 89.4583 353.214 89.1817 352.98 88.995C352.747 88.8017 352.41 88.705 351.97 88.705C351.524 88.705 351.184 88.795 350.95 88.975C350.724 89.155 350.587 89.4017 350.54 89.715L349.64 89.655C349.707 89.1217 349.94 88.6917 350.34 88.365C350.74 88.0317 351.284 87.865 351.97 87.865C352.43 87.865 352.83 87.945 353.17 88.105C353.51 88.2583 353.77 88.4783 353.95 88.765C354.137 89.0517 354.23 89.3917 354.23 89.785C354.23 90.225 354.09 90.5817 353.81 90.855C353.537 91.1217 353.13 91.305 352.59 91.405V91.225C353.17 91.2917 353.63 91.4983 353.97 91.845C354.31 92.1917 354.48 92.625 354.48 93.145C354.48 93.5983 354.37 93.985 354.15 94.305C353.93 94.625 353.627 94.8683 353.24 95.035C352.854 95.2017 352.414 95.285 351.92 95.285ZM361.073 95.125V88.025H365.393V88.865H361.933V91.155H365.273V91.975H361.933V94.285H365.473V95.125H361.073ZM368.339 95.125V88.865H366.169V88.025H371.369V88.865H369.199V95.125H368.339ZM371.965 95.125V88.025H372.825V91.475L372.385 91.135H376.345L375.905 91.475V88.025H376.765V95.125H375.905V91.635L376.345 91.975H372.385L372.825 91.635V95.125H371.965Z" fill="black"/>
</g>
<g opacity="0.7">
<path d="M14.57 116.167V109.907H12.4V109.067H17.6V109.907H15.43V116.167H14.57ZM20.5261 116.167V110.867H21.3661V116.167H20.5261ZM18.3961 116.167V115.427H23.1961V116.167H18.3961ZM18.4961 111.607V110.867H21.3661V111.607H18.4961ZM20.4461 110.037V109.057H21.3261V110.037H20.4461ZM23.5922 116.167V110.867H24.3622L24.3922 112.047L24.2922 112.027C24.3522 111.633 24.4789 111.323 24.6722 111.097C24.8722 110.863 25.1255 110.747 25.4322 110.747C25.7455 110.747 25.9855 110.86 26.1522 111.087C26.3255 111.313 26.4322 111.647 26.4722 112.087H26.3722C26.4322 111.673 26.5655 111.347 26.7722 111.107C26.9855 110.867 27.2522 110.747 27.5722 110.747C27.9989 110.747 28.3089 110.893 28.5022 111.187C28.6955 111.48 28.7922 111.967 28.7922 112.647V116.167H27.9522V112.767C27.9522 112.293 27.9022 111.963 27.8022 111.777C27.7022 111.583 27.5455 111.487 27.3322 111.487C27.1922 111.487 27.0689 111.533 26.9622 111.627C26.8555 111.713 26.7689 111.853 26.7022 112.047C26.6422 112.24 26.6122 112.487 26.6122 112.787V116.167H25.7722V112.767C25.7722 112.313 25.7222 111.987 25.6222 111.787C25.5289 111.587 25.3722 111.487 25.1522 111.487C25.0122 111.487 24.8889 111.533 24.7822 111.627C24.6755 111.713 24.5889 111.853 24.5222 112.047C24.4622 112.24 24.4322 112.487 24.4322 112.787V116.167H23.5922ZM31.8783 116.287C31.3783 116.287 30.9449 116.173 30.5783 115.947C30.2183 115.72 29.9383 115.4 29.7383 114.987C29.5449 114.567 29.4483 114.077 29.4483 113.517C29.4483 112.957 29.5449 112.47 29.7383 112.057C29.9383 111.643 30.2149 111.323 30.5683 111.097C30.9283 110.863 31.3516 110.747 31.8383 110.747C32.2983 110.747 32.7049 110.857 33.0583 111.077C33.4116 111.29 33.6883 111.603 33.8883 112.017C34.0883 112.43 34.1883 112.933 34.1883 113.527V113.777H30.3283C30.3616 114.343 30.5116 114.77 30.7783 115.057C31.0516 115.343 31.4183 115.487 31.8783 115.487C32.2249 115.487 32.5083 115.407 32.7283 115.247C32.9549 115.08 33.1116 114.863 33.1983 114.597L34.0983 114.667C33.9583 115.14 33.6916 115.53 33.2983 115.837C32.9116 116.137 32.4383 116.287 31.8783 116.287ZM30.3283 113.037H33.2683C33.2283 112.523 33.0783 112.147 32.8183 111.907C32.5583 111.667 32.2316 111.547 31.8383 111.547C31.4316 111.547 31.0949 111.673 30.8283 111.927C30.5683 112.173 30.4016 112.543 30.3283 113.037ZM42.6505 116.287C42.1838 116.287 41.7805 116.173 41.4405 115.947C41.1005 115.72 40.8371 115.4 40.6505 114.987C40.4705 114.573 40.3805 114.083 40.3805 113.517C40.3805 112.95 40.4705 112.46 40.6505 112.047C40.8371 111.633 41.1005 111.313 41.4405 111.087C41.7805 110.86 42.1838 110.747 42.6505 110.747C43.0238 110.747 43.3505 110.837 43.6305 111.017C43.9105 111.19 44.1138 111.387 44.2405 111.607V109.067H45.0805V116.167H44.3205L44.2905 115.367C44.1438 115.653 43.9271 115.88 43.6405 116.047C43.3538 116.207 43.0238 116.287 42.6505 116.287ZM42.7005 115.487C43.0205 115.487 43.2938 115.407 43.5205 115.247C43.7538 115.087 43.9305 114.86 44.0505 114.567C44.1771 114.267 44.2405 113.917 44.2405 113.517C44.2405 113.103 44.1771 112.75 44.0505 112.457C43.9305 112.163 43.7538 111.94 43.5205 111.787C43.2871 111.627 43.0071 111.547 42.6805 111.547C42.2471 111.547 41.9005 111.723 41.6405 112.077C41.3871 112.423 41.2605 112.903 41.2605 113.517C41.2605 114.123 41.3871 114.603 41.6405 114.957C41.9005 115.31 42.2538 115.487 42.7005 115.487ZM48.6666 116.287C48.1666 116.287 47.7332 116.173 47.3666 115.947C47.0066 115.72 46.7266 115.4 46.5266 114.987C46.3332 114.567 46.2366 114.077 46.2366 113.517C46.2366 112.957 46.3332 112.47 46.5266 112.057C46.7266 111.643 47.0032 111.323 47.3566 111.097C47.7166 110.863 48.1399 110.747 48.6266 110.747C49.0866 110.747 49.4932 110.857 49.8466 111.077C50.1999 111.29 50.4766 111.603 50.6766 112.017C50.8766 112.43 50.9766 112.933 50.9766 113.527V113.777H47.1166C47.1499 114.343 47.2999 114.77 47.5666 115.057C47.8399 115.343 48.2066 115.487 48.6666 115.487C49.0132 115.487 49.2966 115.407 49.5166 115.247C49.7432 115.08 49.8999 114.863 49.9866 114.597L50.8866 114.667C50.7466 115.14 50.4799 115.53 50.0866 115.837C49.6999 116.137 49.2266 116.287 48.6666 116.287ZM47.1166 113.037H50.0566C50.0166 112.523 49.8666 112.147 49.6066 111.907C49.3466 111.667 49.0199 111.547 48.6266 111.547C48.2199 111.547 47.8832 111.673 47.6166 111.927C47.3566 112.173 47.1899 112.543 47.1166 113.037ZM51.9727 117.667V110.867H52.7527L52.7727 112.067L52.6527 112.007C52.786 111.593 53.006 111.28 53.3127 111.067C53.626 110.853 53.986 110.747 54.3927 110.747C54.9193 110.747 55.3493 110.877 55.6827 111.137C56.0227 111.397 56.2727 111.737 56.4327 112.157C56.5927 112.577 56.6727 113.03 56.6727 113.517C56.6727 114.003 56.5927 114.457 56.4327 114.877C56.2727 115.297 56.0227 115.637 55.6827 115.897C55.3493 116.157 54.9193 116.287 54.3927 116.287C54.1193 116.287 53.8627 116.24 53.6227 116.147C53.3893 116.053 53.1893 115.923 53.0227 115.757C52.8627 115.59 52.7527 115.393 52.6927 115.167L52.8127 115.027V117.667H51.9727ZM54.3127 115.487C54.7727 115.487 55.1327 115.313 55.3927 114.967C55.6593 114.62 55.7927 114.137 55.7927 113.517C55.7927 112.897 55.6593 112.413 55.3927 112.067C55.1327 111.72 54.7727 111.547 54.3127 111.547C54.006 111.547 53.7393 111.62 53.5127 111.767C53.2927 111.913 53.1193 112.133 52.9927 112.427C52.8727 112.72 52.8127 113.083 52.8127 113.517C52.8127 113.95 52.8727 114.313 52.9927 114.607C53.1127 114.9 53.286 115.12 53.5127 115.267C53.7393 115.413 54.006 115.487 54.3127 115.487ZM59.7687 116.287C59.2821 116.287 58.8554 116.173 58.4887 115.947C58.1287 115.72 57.8487 115.4 57.6487 114.987C57.4487 114.567 57.3487 114.077 57.3487 113.517C57.3487 112.95 57.4487 112.46 57.6487 112.047C57.8487 111.633 58.1287 111.313 58.4887 111.087C58.8554 110.86 59.2821 110.747 59.7687 110.747C60.2554 110.747 60.6787 110.86 61.0387 111.087C61.4054 111.313 61.6887 111.633 61.8887 112.047C62.0887 112.46 62.1887 112.95 62.1887 113.517C62.1887 114.077 62.0887 114.567 61.8887 114.987C61.6887 115.4 61.4054 115.72 61.0387 115.947C60.6787 116.173 60.2554 116.287 59.7687 116.287ZM59.7687 115.487C60.2554 115.487 60.6321 115.313 60.8987 114.967C61.1721 114.613 61.3087 114.13 61.3087 113.517C61.3087 112.903 61.1721 112.423 60.8987 112.077C60.6321 111.723 60.2554 111.547 59.7687 111.547C59.2821 111.547 58.9021 111.723 58.6287 112.077C58.3621 112.423 58.2287 112.903 58.2287 113.517C58.2287 114.13 58.3621 114.613 58.6287 114.967C58.9021 115.313 59.2821 115.487 59.7687 115.487ZM65.4648 116.287C65.0048 116.287 64.6082 116.207 64.2748 116.047C63.9415 115.887 63.6782 115.673 63.4848 115.407C63.2982 115.133 63.1915 114.83 63.1648 114.497L64.0448 114.437C64.0982 114.763 64.2415 115.02 64.4748 115.207C64.7148 115.393 65.0448 115.487 65.4648 115.487C65.8582 115.487 66.1615 115.43 66.3748 115.317C66.5948 115.203 66.7048 115.027 66.7048 114.787C66.7048 114.633 66.6682 114.507 66.5948 114.407C66.5215 114.307 66.3848 114.223 66.1848 114.157C65.9848 114.083 65.6915 114.013 65.3048 113.947C64.7915 113.853 64.3882 113.74 64.0948 113.607C63.8082 113.467 63.6048 113.293 63.4848 113.087C63.3648 112.88 63.3048 112.633 63.3048 112.347C63.3048 112.04 63.3815 111.767 63.5348 111.527C63.6882 111.287 63.9148 111.097 64.2148 110.957C64.5148 110.817 64.8815 110.747 65.3148 110.747C65.7548 110.747 66.1215 110.827 66.4148 110.987C66.7148 111.14 66.9515 111.347 67.1248 111.607C67.2982 111.86 67.4115 112.14 67.4648 112.447L66.5848 112.507C66.5448 112.32 66.4682 112.157 66.3548 112.017C66.2482 111.87 66.1048 111.757 65.9248 111.677C65.7515 111.59 65.5448 111.547 65.3048 111.547C64.9182 111.547 64.6315 111.623 64.4448 111.777C64.2582 111.93 64.1648 112.12 64.1648 112.347C64.1648 112.527 64.2082 112.67 64.2948 112.777C64.3815 112.883 64.5215 112.97 64.7148 113.037C64.9082 113.097 65.1648 113.153 65.4848 113.207C66.0315 113.293 66.4548 113.407 66.7548 113.547C67.0548 113.68 67.2648 113.847 67.3848 114.047C67.5048 114.247 67.5648 114.493 67.5648 114.787C67.5648 115.1 67.4715 115.37 67.2848 115.597C67.1048 115.817 66.8548 115.987 66.5348 116.107C66.2215 116.227 65.8648 116.287 65.4648 116.287ZM70.8909 116.167V110.867H71.7309V116.167H70.8909ZM68.7609 116.167V115.427H73.5609V116.167H68.7609ZM68.8609 111.607V110.867H71.7309V111.607H68.8609ZM70.8109 110.037V109.057H71.6909V110.037H70.8109ZM77.337 116.167C76.8237 116.167 76.4404 116.047 76.187 115.807C75.9337 115.567 75.807 115.2 75.807 114.707V109.627H76.647V114.707C76.647 114.953 76.7037 115.137 76.817 115.257C76.9304 115.37 77.1037 115.427 77.337 115.427H78.757V116.167H77.337ZM74.057 111.607V110.867H78.757V111.607H74.057ZM82.2431 116.287C81.7431 116.287 81.3098 116.173 80.9431 115.947C80.5831 115.72 80.3031 115.4 80.1031 114.987C79.9098 114.567 79.8131 114.077 79.8131 113.517C79.8131 112.957 79.9098 112.47 80.1031 112.057C80.3031 111.643 80.5798 111.323 80.9331 111.097C81.2931 110.863 81.7165 110.747 82.2031 110.747C82.6631 110.747 83.0698 110.857 83.4231 111.077C83.7765 111.29 84.0531 111.603 84.2531 112.017C84.4531 112.43 84.5531 112.933 84.5531 113.527V113.777H80.6931C80.7265 114.343 80.8765 114.77 81.1431 115.057C81.4165 115.343 81.7831 115.487 82.2431 115.487C82.5898 115.487 82.8731 115.407 83.0931 115.247C83.3198 115.08 83.4765 114.863 83.5631 114.597L84.4631 114.667C84.3231 115.14 84.0565 115.53 83.6631 115.837C83.2765 116.137 82.8031 116.287 82.2431 116.287ZM80.6931 113.037H83.6331C83.5931 112.523 83.4431 112.147 83.1831 111.907C82.9231 111.667 82.5965 111.547 82.2031 111.547C81.7965 111.547 81.4598 111.673 81.1931 111.927C80.9331 112.173 80.7665 112.543 80.6931 113.037ZM87.4192 116.287C86.9526 116.287 86.5492 116.173 86.2092 115.947C85.8692 115.72 85.6059 115.4 85.4192 114.987C85.2392 114.573 85.1492 114.083 85.1492 113.517C85.1492 112.95 85.2392 112.46 85.4192 112.047C85.6059 111.633 85.8692 111.313 86.2092 111.087C86.5492 110.86 86.9526 110.747 87.4192 110.747C87.7926 110.747 88.1192 110.837 88.3992 111.017C88.6792 111.19 88.8826 111.387 89.0092 111.607V109.067H89.8492V116.167H89.0892L89.0592 115.367C88.9126 115.653 88.6959 115.88 88.4092 116.047C88.1226 116.207 87.7926 116.287 87.4192 116.287ZM87.4692 115.487C87.7892 115.487 88.0626 115.407 88.2892 115.247C88.5226 115.087 88.6992 114.86 88.8192 114.567C88.9459 114.267 89.0092 113.917 89.0092 113.517C89.0092 113.103 88.9459 112.75 88.8192 112.457C88.6992 112.163 88.5226 111.94 88.2892 111.787C88.0559 111.627 87.7759 111.547 87.4492 111.547C87.0159 111.547 86.6692 111.723 86.4092 112.077C86.1559 112.423 86.0292 112.903 86.0292 113.517C86.0292 114.123 86.1559 114.603 86.4092 114.957C86.6692 115.31 87.0226 115.487 87.4692 115.487Z" fill="black"/>
<path d="M279.88 116.167V114.627H276.4V113.847L279.82 109.067H280.74V113.787H281.6V114.627H280.74V116.167H279.88ZM277.28 113.787H279.88V110.267L277.28 113.787ZM289.942 116.327C289.476 116.327 289.069 116.227 288.722 116.027C288.376 115.827 288.102 115.543 287.902 115.177C287.709 114.803 287.606 114.367 287.592 113.867L288.432 113.787C288.452 114.36 288.586 114.787 288.832 115.067C289.079 115.347 289.449 115.487 289.942 115.487C290.436 115.487 290.806 115.347 291.052 115.067C291.306 114.78 291.432 114.353 291.432 113.787V109.067H292.292V113.787C292.292 114.573 292.082 115.193 291.662 115.647C291.242 116.1 290.669 116.327 289.942 116.327ZM295.418 116.287C294.892 116.287 294.472 116.11 294.158 115.757C293.845 115.397 293.688 114.903 293.688 114.277V110.867H294.528V114.047C294.528 114.56 294.618 114.94 294.798 115.187C294.985 115.427 295.268 115.547 295.648 115.547C296.062 115.547 296.388 115.413 296.628 115.147C296.868 114.873 296.988 114.5 296.988 114.027V110.867H297.828V116.167H297.028V114.857L297.158 114.927C297.052 115.36 296.848 115.697 296.548 115.937C296.248 116.17 295.872 116.287 295.418 116.287ZM301.114 116.167V110.487C301.114 110.273 301.054 110.107 300.934 109.987C300.814 109.867 300.648 109.807 300.434 109.807H299.184V109.067H300.474C300.961 109.067 301.328 109.193 301.574 109.447C301.828 109.693 301.954 110.06 301.954 110.547V116.167H301.114ZM298.984 116.167V115.427H303.784V116.167H298.984ZM305.36 117.667V116.927H305.97C306.157 116.927 306.294 116.897 306.38 116.837C306.474 116.783 306.544 116.693 306.59 116.567L306.78 116.067H306.49L304.52 110.867H305.44L307.05 115.287L308.56 110.867H309.48L307.33 116.837C307.23 117.123 307.08 117.333 306.88 117.467C306.68 117.6 306.404 117.667 306.05 117.667H305.36ZM311.957 112.307V111.087H313.197V112.307H311.957ZM312.047 117.727L312.517 116.167H311.977V114.947H313.177V116.027L312.547 117.727H312.047ZM323.609 116.167V110.907H321.749V110.167H322.709C322.962 110.167 323.165 110.13 323.319 110.057C323.479 109.983 323.592 109.867 323.659 109.707C323.732 109.547 323.769 109.333 323.769 109.067H324.469V116.167H323.609ZM321.369 116.167V115.327H326.169V116.167H321.369ZM327.565 115.147L330.365 110.047L331.165 110.087L328.365 115.187L327.565 115.147ZM329.365 116.327C328.852 116.327 328.405 116.177 328.025 115.877C327.652 115.577 327.365 115.15 327.165 114.597C326.965 114.043 326.865 113.387 326.865 112.627C326.865 111.86 326.965 111.2 327.165 110.647C327.365 110.093 327.652 109.667 328.025 109.367C328.405 109.06 328.852 108.907 329.365 108.907C329.885 108.907 330.332 109.06 330.705 109.367C331.078 109.667 331.365 110.093 331.565 110.647C331.765 111.2 331.865 111.86 331.865 112.627C331.865 113.387 331.765 114.043 331.565 114.597C331.365 115.15 331.078 115.577 330.705 115.877C330.332 116.177 329.885 116.327 329.365 116.327ZM329.365 115.487C329.698 115.487 329.982 115.37 330.215 115.137C330.455 114.903 330.638 114.573 330.765 114.147C330.898 113.713 330.965 113.207 330.965 112.627C330.965 112.033 330.898 111.523 330.765 111.097C330.638 110.663 330.455 110.33 330.215 110.097C329.982 109.863 329.698 109.747 329.365 109.747C329.038 109.747 328.755 109.863 328.515 110.097C328.275 110.33 328.088 110.663 327.955 111.097C327.828 111.523 327.765 112.033 327.765 112.627C327.765 113.207 327.828 113.713 327.955 114.147C328.088 114.573 328.275 114.903 328.515 115.137C328.755 115.37 329.038 115.487 329.365 115.487ZM334.341 116.167V114.947H335.581V116.167H334.341ZM334.341 112.307V111.087H335.581V112.307H334.341ZM338.757 115.147L341.557 110.047L342.357 110.087L339.557 115.187L338.757 115.147ZM340.557 116.327C340.044 116.327 339.597 116.177 339.217 115.877C338.844 115.577 338.557 115.15 338.357 114.597C338.157 114.043 338.057 113.387 338.057 112.627C338.057 111.86 338.157 111.2 338.357 110.647C338.557 110.093 338.844 109.667 339.217 109.367C339.597 109.06 340.044 108.907 340.557 108.907C341.077 108.907 341.524 109.06 341.897 109.367C342.27 109.667 342.557 110.093 342.757 110.647C342.957 111.2 343.057 111.86 343.057 112.627C343.057 113.387 342.957 114.043 342.757 114.597C342.557 115.15 342.27 115.577 341.897 115.877C341.524 116.177 341.077 116.327 340.557 116.327ZM340.557 115.487C340.89 115.487 341.174 115.37 341.407 115.137C341.647 114.903 341.83 114.573 341.957 114.147C342.09 113.713 342.157 113.207 342.157 112.627C342.157 112.033 342.09 111.523 341.957 111.097C341.83 110.663 341.647 110.33 341.407 110.097C341.174 109.863 340.89 109.747 340.557 109.747C340.23 109.747 339.947 109.863 339.707 110.097C339.467 110.33 339.28 110.663 339.147 111.097C339.02 111.523 338.957 112.033 338.957 112.627C338.957 113.207 339.02 113.713 339.147 114.147C339.28 114.573 339.467 114.903 339.707 115.137C339.947 115.37 340.23 115.487 340.557 115.487ZM344.353 115.147L347.153 110.047L347.953 110.087L345.153 115.187L344.353 115.147ZM346.153 116.327C345.64 116.327 345.193 116.177 344.813 115.877C344.44 115.577 344.153 115.15 343.953 114.597C343.753 114.043 343.653 113.387 343.653 112.627C343.653 111.86 343.753 111.2 343.953 110.647C344.153 110.093 344.44 109.667 344.813 109.367C345.193 109.06 345.64 108.907 346.153 108.907C346.673 108.907 347.12 109.06 347.493 109.367C347.866 109.667 348.153 110.093 348.353 110.647C348.553 111.2 348.653 111.86 348.653 112.627C348.653 113.387 348.553 114.043 348.353 114.597C348.153 115.15 347.866 115.577 347.493 115.877C347.12 116.177 346.673 116.327 346.153 116.327ZM346.153 115.487C346.486 115.487 346.77 115.37 347.003 115.137C347.243 114.903 347.426 114.573 347.553 114.147C347.686 113.713 347.753 113.207 347.753 112.627C347.753 112.033 347.686 111.523 347.553 111.097C347.426 110.663 347.243 110.33 347.003 110.097C346.77 109.863 346.486 109.747 346.153 109.747C345.826 109.747 345.543 109.863 345.303 110.097C345.063 110.33 344.876 110.663 344.743 111.097C344.616 111.523 344.553 112.033 344.553 112.627C344.553 113.207 344.616 113.713 344.743 114.147C344.876 114.573 345.063 114.903 345.303 115.137C345.543 115.37 345.826 115.487 346.153 115.487ZM351.129 116.167V114.947H352.369V116.167H351.129ZM351.129 112.307V111.087H352.369V112.307H351.129ZM354.845 116.167C354.845 115.667 354.922 115.217 355.075 114.817C355.235 114.41 355.512 114.023 355.905 113.657C356.305 113.29 356.859 112.92 357.565 112.547C357.892 112.373 358.155 112.213 358.355 112.067C358.555 111.92 358.702 111.763 358.795 111.597C358.889 111.43 358.935 111.227 358.935 110.987C358.935 110.74 358.882 110.527 358.775 110.347C358.669 110.16 358.509 110.013 358.295 109.907C358.089 109.8 357.829 109.747 357.515 109.747C357.015 109.747 356.619 109.877 356.325 110.137C356.039 110.397 355.859 110.767 355.785 111.247L354.885 111.187C354.965 110.493 355.232 109.94 355.685 109.527C356.139 109.113 356.749 108.907 357.515 108.907C358.002 108.907 358.419 108.993 358.765 109.167C359.112 109.34 359.375 109.583 359.555 109.897C359.742 110.203 359.835 110.56 359.835 110.967C359.835 111.327 359.775 111.64 359.655 111.907C359.535 112.167 359.332 112.41 359.045 112.637C358.765 112.863 358.379 113.107 357.885 113.367C357.459 113.593 357.099 113.823 356.805 114.057C356.519 114.29 356.299 114.517 356.145 114.737C355.999 114.95 355.919 115.147 355.905 115.327H359.845V116.167H354.845ZM362.781 116.167V110.907H360.921V110.167H361.881C362.135 110.167 362.338 110.13 362.491 110.057C362.651 109.983 362.765 109.867 362.831 109.707C362.905 109.547 362.941 109.333 362.941 109.067H363.641V116.167H362.781ZM360.541 116.167V115.327H365.341V116.167H360.541ZM366.437 116.167V109.067H368.597C369.091 109.067 369.521 109.153 369.887 109.327C370.254 109.5 370.537 109.75 370.737 110.077C370.937 110.397 371.037 110.783 371.037 111.237C371.037 111.69 370.937 112.08 370.737 112.407C370.537 112.727 370.254 112.973 369.887 113.147C369.521 113.32 369.091 113.407 368.597 113.407H367.297V116.167H366.437ZM367.297 112.567H368.497C369.057 112.567 369.471 112.453 369.737 112.227C370.004 111.993 370.137 111.663 370.137 111.237C370.137 110.803 370.004 110.473 369.737 110.247C369.471 110.02 369.057 109.907 368.497 109.907H367.297V112.567ZM373.754 115.367L372.414 109.867H372.494V116.167H371.634V109.067H372.934L374.334 114.907H373.934L375.334 109.067H376.634V116.167H375.774V109.867H375.854L374.514 115.367H373.754Z" fill="black"/>
</g>
<defs>
<clipPath id="clip0_327_498">
<rect x="12" y="56.0415" width="328" height="7" rx="3.5" fill="white"/>
</clipPath>
</defs>
</svg>
