<svg width="151" height="169" viewBox="0 0 151 169" fill="none" xmlns="http://www.w3.org/2000/svg">
<path d="M6.336 10.604L0.864 8.168V6.896L6.336 4.46V5.492L1.608 7.604V7.46L6.336 9.572V10.604ZM8.01131 12.32L11.6593 2H12.6193L8.97131 12.32H8.01131ZM17.1626 11.192C16.5626 11.192 16.0306 11.068 15.5666 10.82C15.1026 10.572 14.7306 10.232 14.4506 9.8C14.1706 9.36 14.0066 8.852 13.9586 8.276L15.0386 8.204C15.0946 8.628 15.2146 8.988 15.3986 9.284C15.5906 9.58 15.8346 9.804 16.1306 9.956C16.4346 10.108 16.7866 10.184 17.1866 10.184C17.5866 10.184 17.9226 10.136 18.1946 10.04C18.4666 9.936 18.6706 9.788 18.8066 9.596C18.9506 9.396 19.0226 9.16 19.0226 8.888C19.0226 8.616 18.9586 8.38 18.8306 8.18C18.7106 7.972 18.4786 7.78 18.1346 7.604C17.7986 7.428 17.2986 7.248 16.6346 7.064C16.0426 6.896 15.5626 6.712 15.1946 6.512C14.8346 6.312 14.5706 6.068 14.4026 5.78C14.2426 5.492 14.1626 5.136 14.1626 4.712C14.1626 4.232 14.2746 3.812 14.4986 3.452C14.7306 3.084 15.0586 2.8 15.4826 2.6C15.9066 2.392 16.4106 2.288 16.9946 2.288C17.5786 2.288 18.0786 2.408 18.4946 2.648C18.9106 2.88 19.2386 3.2 19.4786 3.608C19.7266 4.016 19.8826 4.48 19.9466 5L18.8666 5.072C18.8186 4.728 18.7186 4.424 18.5666 4.16C18.4146 3.888 18.2066 3.676 17.9426 3.524C17.6786 3.372 17.3546 3.296 16.9706 3.296C16.4426 3.296 16.0226 3.424 15.7106 3.68C15.3986 3.928 15.2426 4.256 15.2426 4.664C15.2426 4.928 15.2986 5.148 15.4106 5.324C15.5306 5.492 15.7386 5.644 16.0346 5.78C16.3306 5.908 16.7466 6.048 17.2826 6.2C17.9786 6.392 18.5306 6.608 18.9386 6.848C19.3546 7.088 19.6506 7.376 19.8266 7.712C20.0106 8.04 20.1026 8.44 20.1026 8.912C20.1026 9.36 19.9786 9.756 19.7306 10.1C19.4826 10.444 19.1386 10.712 18.6986 10.904C18.2586 11.096 17.7466 11.192 17.1626 11.192ZM23.2299 11V3.488H20.6259V2.48H26.8659V3.488H24.2619V11H23.2299ZM27.7012 11V2.48H30.2933C31.1893 2.48 31.8973 2.708 32.4173 3.164C32.9373 3.612 33.1972 4.232 33.1972 5.024C33.1972 5.424 33.1052 5.78 32.9212 6.092C32.7373 6.396 32.5013 6.636 32.2133 6.812C31.9253 6.988 31.6293 7.088 31.3253 7.112L31.2773 6.968C31.8453 7 32.2693 7.136 32.5493 7.376C32.8373 7.616 33.0053 8.008 33.0533 8.552L33.2693 11H32.2373L32.0333 8.684C32.0093 8.42 31.9453 8.208 31.8413 8.048C31.7453 7.88 31.5893 7.76 31.3733 7.688C31.1653 7.608 30.8773 7.568 30.5093 7.568H28.7332V11H27.7012ZM28.7332 6.56H30.2933C30.8853 6.56 31.3373 6.428 31.6493 6.164C31.9613 5.892 32.1173 5.512 32.1173 5.024C32.1173 4.528 31.9613 4.148 31.6493 3.884C31.3373 3.62 30.8853 3.488 30.2933 3.488H28.7332V6.56ZM35.2086 8.288V6.896L38.9046 2.48H40.1766L35.2086 8.288ZM34.2966 11V2.48H35.3286V11H34.2966ZM39.0246 11L36.0486 6.68L36.7686 5.936L40.2966 11H39.0246ZM43.1479 11V9.536H44.6359V11H43.1479ZM50.7392 11.192C50.1392 11.192 49.6072 11.068 49.1432 10.82C48.6792 10.572 48.3072 10.232 48.0272 9.8C47.7472 9.36 47.5832 8.852 47.5352 8.276L48.6152 8.204C48.6712 8.628 48.7912 8.988 48.9752 9.284C49.1672 9.58 49.4112 9.804 49.7072 9.956C50.0112 10.108 50.3632 10.184 50.7632 10.184C51.1632 10.184 51.4992 10.136 51.7712 10.04C52.0432 9.936 52.2472 9.788 52.3832 9.596C52.5272 9.396 52.5992 9.16 52.5992 8.888C52.5992 8.616 52.5352 8.38 52.4072 8.18C52.2872 7.972 52.0552 7.78 51.7112 7.604C51.3752 7.428 50.8752 7.248 50.2112 7.064C49.6192 6.896 49.1392 6.712 48.7712 6.512C48.4112 6.312 48.1472 6.068 47.9792 5.78C47.8192 5.492 47.7392 5.136 47.7392 4.712C47.7392 4.232 47.8512 3.812 48.0752 3.452C48.3072 3.084 48.6352 2.8 49.0592 2.6C49.4832 2.392 49.9872 2.288 50.5712 2.288C51.1552 2.288 51.6552 2.408 52.0712 2.648C52.4872 2.88 52.8152 3.2 53.0552 3.608C53.3032 4.016 53.4592 4.48 53.5232 5L52.4432 5.072C52.3952 4.728 52.2952 4.424 52.1432 4.16C51.9912 3.888 51.7832 3.676 51.5192 3.524C51.2552 3.372 50.9312 3.296 50.5472 3.296C50.0192 3.296 49.5992 3.424 49.2872 3.68C48.9752 3.928 48.8192 4.256 48.8192 4.664C48.8192 4.928 48.8752 5.148 48.9872 5.324C49.1072 5.492 49.3152 5.644 49.6112 5.78C49.9072 5.908 50.3232 6.048 50.8592 6.2C51.5552 6.392 52.1072 6.608 52.5152 6.848C52.9312 7.088 53.2272 7.376 53.4032 7.712C53.5872 8.04 53.6792 8.44 53.6792 8.912C53.6792 9.36 53.5552 9.756 53.3072 10.1C53.0592 10.444 52.7152 10.712 52.2752 10.904C51.8352 11.096 51.3232 11.192 50.7392 11.192ZM56.6505 11L54.0825 2.48H55.1865L57.4665 10.328H57.1785L59.4585 2.48H60.5625L57.9945 11H56.6505ZM64.0138 11.192C63.4138 11.192 62.8778 11.028 62.4058 10.7C61.9418 10.364 61.5738 9.868 61.3018 9.212C61.0298 8.548 60.8938 7.728 60.8938 6.752C60.8938 5.832 61.0178 5.04 61.2658 4.376C61.5218 3.712 61.8858 3.2 62.3578 2.84C62.8298 2.472 63.3978 2.288 64.0618 2.288C64.5818 2.288 65.0418 2.404 65.4418 2.636C65.8498 2.868 66.1898 3.192 66.4618 3.608C66.7338 4.016 66.9298 4.488 67.0498 5.024L65.9698 5.096C65.8338 4.568 65.6058 4.136 65.2858 3.8C64.9738 3.464 64.5658 3.296 64.0618 3.296C63.6218 3.296 63.2458 3.432 62.9338 3.704C62.6218 3.968 62.3818 4.36 62.2138 4.88C62.0538 5.392 61.9738 6.016 61.9738 6.752C61.9738 7.48 62.0578 8.1 62.2258 8.612C62.3938 9.124 62.6338 9.516 62.9458 9.788C63.2658 10.052 63.6538 10.184 64.1098 10.184C64.5178 10.184 64.8658 10.08 65.1538 9.872C65.4498 9.656 65.6818 9.36 65.8498 8.984C66.0178 8.6 66.1098 8.164 66.1258 7.676H64.0858V6.692H67.0858V11H66.1258L66.0778 8.984L66.3658 9.08C66.2538 9.488 66.0978 9.852 65.8978 10.172C65.7058 10.492 65.4538 10.744 65.1418 10.928C64.8378 11.104 64.4618 11.192 64.0138 11.192ZM68.0171 10.604V9.572L72.7451 7.46V7.604L68.0171 5.492V4.46L73.4891 6.896V8.168L68.0171 10.604Z" fill="#878787"/>
<rect x="0.5" y="18.5" width="150" height="150" rx="3.5" fill="url(#paint0_linear_327_348)"/>
<rect x="0.5" y="18.5" width="150" height="150" rx="3.5" stroke="#1B1B1B"/>
<path d="M42.6387 93.5001C42.6387 111.649 57.351 126.362 75.5001 126.362C93.6492 126.362 108.362 111.649 108.362 93.5001C108.362 75.3511 93.6492 60.6387 75.5001 60.6387C57.351 60.6387 42.6387 75.351 42.6387 93.5001Z" fill="#0C0C4F" stroke="#EC796B" stroke-width="0.842613"/>
<path fill-rule="evenodd" clip-rule="evenodd" d="M60.8193 85.6593L61.6409 83.121C61.8078 82.6048 62.2154 82.2031 62.7334 82.0446L65.2842 81.2602C65.6373 81.1523 65.6402 80.6542 65.2899 80.5407L62.7507 79.7192C62.2354 79.5521 61.8336 79.1447 61.6744 78.6265L60.8909 76.0757C60.7831 75.7236 60.285 75.7197 60.1713 76.071L59.3497 78.6093C59.1828 79.1246 58.7753 79.5263 58.2571 79.6857L55.7064 80.4692C55.3533 80.5779 55.3495 81.0751 55.7007 81.1886L58.2399 82.0102C58.7552 82.1773 59.157 82.5856 59.3163 83.1038L60.0998 85.6535C60.2076 86.0066 60.7057 86.0104 60.8193 85.6593Z" fill="#FAFAFA"/>
<path fill-rule="evenodd" clip-rule="evenodd" d="M101.137 84.1823C100.085 83.0064 98.4439 82.3442 96.8484 82.0728C95.2401 81.812 93.554 81.8362 91.9662 82.1182C88.7537 82.6617 85.8354 83.9919 83.2901 85.6327C81.9682 86.4382 80.8409 87.3699 79.6731 88.319C79.1104 88.7989 78.5974 89.3101 78.063 89.8139L76.6031 91.2665C75.0168 92.9246 73.4532 94.4348 71.9403 95.6868C70.4214 96.9329 69.0013 97.8791 67.6019 98.5401C66.2032 99.2044 64.7066 99.595 62.7561 99.6576C60.8227 99.7258 58.5351 99.3768 56.0882 98.8009C53.6282 98.2274 51.0449 97.41 48.1582 96.7067C49.1655 99.5011 50.6823 101.971 52.6297 104.228C54.5999 106.446 57.0601 108.468 60.2206 109.797C63.3354 111.156 67.2498 111.644 70.9099 110.908C74.5796 110.202 77.8001 108.504 80.4031 106.54C83.0128 104.556 85.1243 102.296 86.9042 99.9463C87.3956 99.2971 87.6556 98.9338 88.0112 98.4264L88.9939 96.9707C89.677 96.07 90.2987 95.0447 90.9747 94.1526C92.3002 92.2839 93.6069 90.4176 95.1254 88.6981C95.8897 87.8259 96.6953 86.9917 97.6467 86.19C98.1213 85.7986 98.6341 85.4157 99.2019 85.0707C99.7783 84.6986 100.387 84.4074 101.137 84.1823Z" fill="#EC796B"/>
<path fill-rule="evenodd" clip-rule="evenodd" d="M101.137 84.1818C100.007 81.3311 97.9068 78.9316 95.0879 77.1609C92.2862 75.4098 88.3948 74.5161 84.5388 75.278C82.6339 75.6464 80.7883 76.3557 79.1686 77.3002C77.5564 78.2411 76.1116 79.3736 74.861 80.5887C74.2366 81.1981 73.6698 81.834 73.1069 82.4735L71.6474 84.334L69.3935 87.329C66.52 91.1825 63.4257 95.6984 58.3479 97.0366C53.3628 98.3502 51.2007 97.1868 48.1582 96.7062C48.7145 98.1426 49.4036 99.5373 50.3378 100.764C51.2546 102.016 52.3375 103.192 53.6839 104.2C54.3643 104.684 55.0826 105.162 55.8804 105.567C56.6745 105.959 57.531 106.303 58.4452 106.563C60.2635 107.061 62.3106 107.236 64.2927 106.967C66.2759 106.703 68.1714 106.074 69.8282 105.24C71.4971 104.413 72.9511 103.406 74.2493 102.344C76.83 100.2 78.8375 97.8324 80.5331 95.4387C81.3859 94.242 82.1601 93.0225 82.8762 91.8029L83.7189 90.3509C83.9765 89.9264 84.2371 89.4994 84.5019 89.1016C85.5696 87.5036 86.614 86.2222 87.8826 85.2605C89.1337 84.2738 90.8755 83.5449 93.2033 83.3755C95.5215 83.2043 98.1976 83.5208 101.137 84.1818Z" fill="#FAFAFA"/>
<path fill-rule="evenodd" clip-rule="evenodd" d="M88.5938 107.866C88.5938 109.96 90.2918 111.658 92.3855 111.658C94.4791 111.658 96.1752 109.96 96.1752 107.866C96.1752 105.772 94.4791 104.074 92.3855 104.074C90.2918 104.074 88.5938 105.772 88.5938 107.866Z" fill="#EC796B"/>
<defs>
<linearGradient id="paint0_linear_327_348" x1="75.5" y1="18" x2="75.5" y2="169" gradientUnits="userSpaceOnUse">
<stop stop-color="#020917"/>
<stop offset="1" stop-color="#030306"/>
</linearGradient>
</defs>
</svg>
