<svg width="104" height="100" viewBox="0 0 104 100" fill="none" xmlns="http://www.w3.org/2000/svg">
<path d="M5.59934 9.65346L0.810777 7.52171V6.40858L5.59934 4.27683V5.17993L1.46185 7.02815V6.90213L5.59934 8.75035V9.65346ZM7.06541 11.1551L10.2578 2.12407H11.0979L7.90551 11.1551H7.06541ZM14.9582 10.168C14.1741 10.168 13.5581 9.91949 13.11 9.42243C12.662 8.92537 12.4379 8.24979 12.4379 7.39569V2.54412H13.3411V7.39569C13.3411 8.01177 13.4776 8.48082 13.7506 8.80286C14.0306 9.1249 14.4332 9.28592 14.9582 9.28592C15.4833 9.28592 15.8824 9.1249 16.1554 8.80286C16.4354 8.48082 16.5754 8.01177 16.5754 7.39569V2.54412H17.4785V7.39569C17.4785 8.24979 17.2545 8.92537 16.8065 9.42243C16.3584 9.91949 15.7423 10.168 14.9582 10.168ZM20.9503 10.168C20.4253 10.168 19.9597 10.0595 19.5537 9.84248C19.1476 9.62546 18.8221 9.32792 18.5771 8.94988C18.332 8.56483 18.1885 8.12028 18.1465 7.61622L19.0916 7.55321C19.1406 7.92426 19.2456 8.23929 19.4067 8.49832C19.5747 8.75735 19.7882 8.95338 20.0472 9.08639C20.3133 9.21941 20.6213 9.28592 20.9713 9.28592C21.3214 9.28592 21.6154 9.24391 21.8535 9.1599C22.0915 9.06889 22.27 8.93937 22.389 8.77136C22.515 8.59633 22.578 8.38981 22.578 8.15178C22.578 7.91375 22.522 7.70723 22.41 7.53221C22.305 7.35019 22.102 7.18217 21.8009 7.02815C21.5069 6.87413 21.0694 6.71661 20.4883 6.55559C19.9702 6.40858 19.5502 6.24756 19.2281 6.07254C18.9131 5.89752 18.6821 5.68399 18.5351 5.43196C18.395 5.17993 18.325 4.86839 18.325 4.49735C18.325 4.0773 18.423 3.70976 18.6191 3.39472C18.8221 3.07268 19.1091 2.82415 19.4802 2.64913C19.8512 2.46711 20.2923 2.3761 20.8033 2.3761C21.3144 2.3761 21.7519 2.48111 22.116 2.69114C22.48 2.89416 22.7671 3.17419 22.9771 3.53124C23.1941 3.88828 23.3306 4.29433 23.3866 4.74938L22.4415 4.81239C22.3995 4.51135 22.312 4.24532 22.179 4.01429C22.046 3.77627 21.864 3.59074 21.6329 3.45773C21.4019 3.32471 21.1184 3.25821 20.7823 3.25821C20.3203 3.25821 19.9527 3.37022 19.6797 3.59424C19.4067 3.81127 19.2701 4.0983 19.2701 4.45535C19.2701 4.68637 19.3192 4.8789 19.4172 5.03291C19.5222 5.17993 19.7042 5.31295 19.9632 5.43196C20.2223 5.54397 20.5863 5.66649 21.0554 5.7995C21.6644 5.96752 22.1475 6.15655 22.5045 6.36657C22.8686 6.5766 23.1276 6.82863 23.2816 7.12266C23.4426 7.40969 23.5232 7.75974 23.5232 8.17278C23.5232 8.56483 23.4146 8.91137 23.1976 9.21241C22.9806 9.51344 22.6796 9.74797 22.2945 9.91599C21.9095 10.084 21.4614 10.168 20.9503 10.168ZM24.5062 10V2.54412H26.2704C26.9144 2.54412 27.4745 2.69114 27.9506 2.98517C28.4336 3.27221 28.8047 3.69576 29.0637 4.25582C29.3297 4.80889 29.4627 5.48447 29.4627 6.28256C29.4627 7.08066 29.3297 7.75624 29.0637 8.3093C28.8047 8.86237 28.4336 9.28242 27.9506 9.56945C27.4745 9.85648 26.9144 10 26.2704 10H24.5062ZM25.4093 9.1179H26.2179C26.946 9.1179 27.5095 8.88337 27.9086 8.41431C28.3146 7.93826 28.5176 7.22767 28.5176 6.28256C28.5176 5.33745 28.3146 4.62687 27.9086 4.15081C27.5095 3.66775 26.946 3.42622 26.2179 3.42622H25.4093V9.1179ZM32.609 10.168C32.0139 10.168 31.5099 10.0105 31.0968 9.69546C30.6838 9.38043 30.3688 8.93237 30.1517 8.35131C29.9417 7.77024 29.8367 7.08066 29.8367 6.28256C29.8367 5.47747 29.9417 4.78438 30.1517 4.20332C30.3688 3.62225 30.6838 3.1742 31.0968 2.85916C31.5099 2.53712 32.0139 2.3761 32.609 2.3761C33.2671 2.3761 33.8272 2.59313 34.2892 3.02718C34.7513 3.45423 35.0593 4.0528 35.2133 4.82289L34.2472 4.8859C34.1282 4.34683 33.9217 3.94079 33.6276 3.66775C33.3406 3.39472 33.0011 3.25821 32.609 3.25821C32.21 3.25821 31.8739 3.37722 31.6009 3.61525C31.3349 3.84627 31.1318 4.18931 30.9918 4.64437C30.8518 5.09242 30.7818 5.63849 30.7818 6.28256C30.7818 6.91964 30.8518 7.4622 30.9918 7.91025C31.1318 8.35831 31.3349 8.70135 31.6009 8.93937C31.8739 9.1704 32.21 9.28592 32.609 9.28592C33.0431 9.28592 33.4106 9.1354 33.7116 8.83436C34.0127 8.53333 34.2157 8.08527 34.3207 7.4902L35.2763 7.54271C35.1433 8.36181 34.8423 9.00588 34.3732 9.47494C33.9042 9.93699 33.3161 10.168 32.609 10.168ZM37.8135 10V8.71885H39.1157V10H37.8135ZM44.4567 10.168C43.9316 10.168 43.4661 10.0595 43.06 9.84248C42.654 9.62546 42.3285 9.32792 42.0834 8.94988C41.8384 8.56483 41.6949 8.12028 41.6529 7.61622L42.598 7.55321C42.647 7.92426 42.752 8.23929 42.913 8.49832C43.081 8.75735 43.2946 8.95338 43.5536 9.08639C43.8196 9.21941 44.1277 9.28592 44.4777 9.28592C44.8278 9.28592 45.1218 9.24391 45.3598 9.1599C45.5978 9.06889 45.7764 8.93937 45.8954 8.77136C46.0214 8.59633 46.0844 8.38981 46.0844 8.15178C46.0844 7.91375 46.0284 7.70723 45.9164 7.53221C45.8114 7.35019 45.6083 7.18217 45.3073 7.02815C45.0133 6.87413 44.5757 6.71661 43.9947 6.55559C43.4766 6.40858 43.0565 6.24756 42.7345 6.07254C42.4195 5.89752 42.1884 5.68399 42.0414 5.43196C41.9014 5.17993 41.8314 4.86839 41.8314 4.49735C41.8314 4.0773 41.9294 3.70976 42.1254 3.39472C42.3285 3.07268 42.6155 2.82415 42.9865 2.64913C43.3576 2.46711 43.7986 2.3761 44.3097 2.3761C44.8208 2.3761 45.2583 2.48111 45.6223 2.69114C45.9864 2.89416 46.2734 3.17419 46.4835 3.53124C46.7005 3.88828 46.837 4.29433 46.893 4.74938L45.9479 4.81239C45.9059 4.51135 45.8184 4.24532 45.6854 4.01429C45.5523 3.77627 45.3703 3.59074 45.1393 3.45773C44.9083 3.32471 44.6247 3.25821 44.2887 3.25821C43.8266 3.25821 43.4591 3.37022 43.1861 3.59424C42.913 3.81127 42.7765 4.0983 42.7765 4.45535C42.7765 4.68637 42.8255 4.8789 42.9235 5.03291C43.0285 5.17993 43.2106 5.31295 43.4696 5.43196C43.7286 5.54397 44.0927 5.66649 44.5617 5.7995C45.1708 5.96752 45.6539 6.15655 46.0109 6.36657C46.3749 6.5766 46.634 6.82863 46.788 7.12266C46.949 7.40969 47.0295 7.75974 47.0295 8.17278C47.0295 8.56483 46.921 8.91137 46.704 9.21241C46.487 9.51344 46.1859 9.74797 45.8009 9.91599C45.4158 10.084 44.9678 10.168 44.4567 10.168ZM49.6297 10L47.3825 2.54412H48.3486L50.3438 9.41193H50.0918L52.087 2.54412H53.0531L50.8059 10H49.6297ZM56.0734 10.168C55.5483 10.168 55.0793 10.0245 54.6662 9.73747C54.2602 9.44343 53.9381 9.00938 53.7001 8.43532C53.4621 7.85425 53.3431 7.13666 53.3431 6.28256C53.3431 5.47747 53.4516 4.78438 53.6686 4.20332C53.8926 3.62225 54.2112 3.1742 54.6242 2.85916C55.0373 2.53712 55.5343 2.3761 56.1154 2.3761C56.5704 2.3761 56.973 2.47761 57.323 2.68064C57.6801 2.88366 57.9776 3.16719 58.2156 3.53124C58.4537 3.88828 58.6252 4.30133 58.7302 4.77038L57.7851 4.83339C57.6661 4.37134 57.4665 3.99329 57.1865 3.69926C56.9135 3.40522 56.5564 3.25821 56.1154 3.25821C55.7303 3.25821 55.4013 3.37722 55.1283 3.61525C54.8552 3.84627 54.6452 4.18931 54.4982 4.64437C54.3582 5.09242 54.2882 5.63849 54.2882 6.28256C54.2882 6.91964 54.3617 7.4622 54.5087 7.91025C54.6557 8.35831 54.8657 8.70135 55.1388 8.93937C55.4188 9.1704 55.7583 9.28592 56.1574 9.28592C56.5144 9.28592 56.819 9.19491 57.071 9.01288C57.33 8.82386 57.533 8.56483 57.6801 8.23579C57.8271 7.89975 57.9076 7.51821 57.9216 7.09116H56.1364V6.23006H58.7617V10H57.9216L57.8796 8.23579L58.1316 8.3198C58.0336 8.67684 57.8971 8.99538 57.7221 9.27541C57.5541 9.55545 57.3335 9.77597 57.0605 9.93699C56.7945 10.091 56.4654 10.168 56.0734 10.168ZM59.5767 9.65346V8.75035L63.7142 6.90213V7.02815L59.5767 5.17993V4.27683L64.3653 6.40858V7.52171L59.5767 9.65346Z" fill="#878787"/>
<rect x="0.492239" y="16.938" width="102.125" height="82.1249" rx="3.06286" fill="white"/>
<rect x="0.492239" y="16.938" width="102.125" height="82.1249" rx="3.06286" stroke="#1B1B1B" stroke-width="0.875103"/>
<g clip-path="url(#clip0_327_367)">
<path d="M51.5558 86.7362C67.426 86.7362 80.2913 73.8708 80.2913 58.0007C80.2913 42.1305 67.426 29.2651 51.5558 29.2651C35.6856 29.2651 22.8203 42.1305 22.8203 58.0007C22.8203 73.8708 35.6856 86.7362 51.5558 86.7362Z" fill="#2775CA"/>
<path d="M46.1616 77.987C46.1616 78.6582 45.6177 79.0401 44.9928 78.8433C36.2899 76.0543 30.0059 67.9185 30.0059 58.2899C30.0059 48.6844 36.2899 40.537 45.0043 37.748C45.6524 37.5512 46.1732 37.9331 46.1732 38.6044V40.2824C46.1732 40.7338 45.8376 41.243 45.4094 41.405C38.5119 43.9395 33.605 50.5592 33.605 58.2899C33.605 66.0321 38.5235 72.6403 45.4094 75.1516C45.8376 75.3136 46.1732 75.8228 46.1732 76.2742V77.987H46.1616Z" fill="white"/>
<path d="M53.3488 71.7606C53.3488 72.2582 52.9437 72.6632 52.4461 72.6632H50.6523C50.1546 72.6632 49.7496 72.2582 49.7496 71.7606V68.9368C45.8264 68.3928 43.9168 66.2171 43.3961 63.2082C43.3035 62.6874 43.7085 62.2476 44.2293 62.2476H46.2777C46.7059 62.2476 47.0647 62.5601 47.1572 62.9652C47.5392 64.7358 48.5691 66.113 51.717 66.113C54.0316 66.113 55.6865 64.8053 55.6865 62.8841C55.6865 60.9515 54.7259 60.2108 51.3119 59.6553C46.2777 58.9841 43.9053 57.4565 43.9053 53.5217C43.9053 50.4896 46.2198 48.1056 49.7612 47.6195V44.8304C49.7612 44.3328 50.1662 43.9277 50.6638 43.9277H52.4576C52.9553 43.9277 53.3603 44.3328 53.3603 44.8304V47.6774C56.2536 48.1981 58.0936 49.8299 58.707 52.5727C58.8227 53.0935 58.4177 53.5564 57.8738 53.5564H55.9874C55.5823 53.5564 55.2467 53.2902 55.131 52.9083C54.6102 51.1839 53.3835 50.4201 51.2193 50.4201C48.8353 50.4201 47.6086 51.5658 47.6086 53.1861C47.6086 54.8873 48.303 55.7437 51.96 56.2644C56.9016 56.9357 59.4592 58.3476 59.4592 62.5485C59.4592 65.7311 57.0752 68.3234 53.3719 68.9021V71.7721H53.3488V71.7606Z" fill="white"/>
<path d="M58.1044 78.8319C57.4563 79.0286 56.9355 78.6467 56.9355 77.9755V76.2974C56.9355 75.7998 57.2249 75.3369 57.6994 75.1748C64.5737 72.6635 69.5037 66.0322 69.5037 58.3131C69.5037 50.5708 64.5852 43.9627 57.6994 41.4514C57.2712 41.2894 56.9355 40.7802 56.9355 40.3288V38.6508C56.9355 37.9795 57.4795 37.5976 58.1044 37.7944C66.8188 40.5371 73.1029 48.6845 73.1029 58.29C73.1029 67.9186 66.8188 76.0544 58.1044 78.8319Z" fill="white"/>
</g>
<defs>
<clipPath id="clip0_327_367">
<rect width="57.8645" height="57.8645" fill="white" transform="translate(22.623 29.0684)"/>
</clipPath>
</defs>
</svg>
