<svg width="64" height="42" viewBox="0 0 64 42" fill="none" xmlns="http://www.w3.org/2000/svg">
<rect x="19.5" y="17.5" width="44" height="24" rx="7.5" fill="#2A2A2A"/>
<rect x="19.5" y="17.5" width="44" height="24" rx="7.5" stroke="white"/>
<path d="M27.932 36.1V35.064H28.786C29.0473 35.064 29.2387 35.022 29.36 34.938C29.4907 34.8633 29.5887 34.7373 29.654 34.56L29.92 33.86H29.514L26.756 26.58H28.044L30.298 32.768L32.412 26.58H33.7L30.69 34.938C30.55 35.3393 30.34 35.6333 30.06 35.82C29.78 36.0067 29.3927 36.1 28.898 36.1H27.932ZM37.4745 34.168C36.7932 34.168 36.1959 34.0093 35.6825 33.692C35.1785 33.3747 34.7865 32.9267 34.5065 32.348C34.2265 31.76 34.0865 31.074 34.0865 30.29C34.0865 29.4967 34.2265 28.8107 34.5065 28.232C34.7865 27.6533 35.1785 27.2053 35.6825 26.888C36.1959 26.5707 36.7932 26.412 37.4745 26.412C38.1559 26.412 38.7485 26.5707 39.2525 26.888C39.7659 27.2053 40.1625 27.6533 40.4425 28.232C40.7225 28.8107 40.8625 29.4967 40.8625 30.29C40.8625 31.074 40.7225 31.76 40.4425 32.348C40.1625 32.9267 39.7659 33.3747 39.2525 33.692C38.7485 34.0093 38.1559 34.168 37.4745 34.168ZM37.4745 33.048C38.1559 33.048 38.6832 32.8053 39.0565 32.32C39.4392 31.8253 39.6305 31.1487 39.6305 30.29C39.6305 29.4313 39.4392 28.7593 39.0565 28.274C38.6832 27.7793 38.1559 27.532 37.4745 27.532C36.7932 27.532 36.2612 27.7793 35.8785 28.274C35.5052 28.7593 35.3185 29.4313 35.3185 30.29C35.3185 31.1487 35.5052 31.8253 35.8785 32.32C36.2612 32.8053 36.7932 33.048 37.4745 33.048ZM44.2311 34.168C43.4937 34.168 42.9057 33.9207 42.4671 33.426C42.0284 32.922 41.8091 32.2313 41.8091 31.354V26.58H42.9851V31.032C42.9851 31.7507 43.1111 32.2827 43.3631 32.628C43.6244 32.964 44.0211 33.132 44.5531 33.132C45.1317 33.132 45.5891 32.9453 45.9251 32.572C46.2611 32.1893 46.4291 31.6667 46.4291 31.004V26.58H47.6051V34H46.4851V32.166L46.6671 32.264C46.5177 32.8707 46.2331 33.342 45.8131 33.678C45.3931 34.0047 44.8657 34.168 44.2311 34.168ZM51.1556 34V32.292H52.8916V34H51.1556Z" fill="white"/>
<path d="M5.9772 2.76754C3.98919 2.08778 2.08777 3.98917 2.76754 5.97719L7.68519 20.3592C8.43653 22.5565 11.5045 22.663 12.4064 20.523L14.7382 14.9899C14.786 14.8764 14.8764 14.786 14.9899 14.7382L20.523 12.4064C22.663 11.5045 22.5565 8.43653 20.3592 7.68519L5.9772 2.76754Z" fill="white"/>
</svg>
